<svg xmlns="http://www.w3.org/2000/svg" viewBox="0 0 343.22 66.25"><g id="Layer_2" data-name="Layer 2"><g id="Layer_1-2" data-name="Layer 1"><polygon points="221.24 10.56 221.3 10.56 221.3 23.28 218.83 23.28 218.83 16.07 215.06 19.58 211.27 16.07 211.27 23.28 208.81 23.28 208.81 10.56 208.87 10.56 215.06 16.34 221.24 10.56"/><path d="M234,11v7.87c0,2.77-2.11,4.73-5.07,4.73a4.76,4.76,0,0,1-5.09-4.73V11h2.52v7.73a2.54,2.54,0,0,0,5.08,0V11Z"/><path d="M237.71,19A2.42,2.42,0,0,0,240,21.31c1.17,0,2.12-.52,2.12-1.69s-1-1.52-2.43-2c-1.76-.68-3.41-1.5-3.41-3.6s1.65-3.28,3.8-3.28a3.64,3.64,0,0,1,3.95,3.12l-2.39.45a1.52,1.52,0,0,0-1.47-1.42,1.19,1.19,0,0,0-1.33,1,.86.86,0,0,0,0,.16c0,1,1.23,1.38,2.63,1.92,1.66.61,3.27,1.51,3.27,3.65,0,2.57-2,4-4.75,4a4.39,4.39,0,0,1-4.72-4.09Z"/><polygon points="254.74 13.27 249.47 13.27 249.47 15.8 254.74 15.8 254.74 18.02 249.47 18.02 249.47 20.96 254.74 20.96 254.74 23.28 246.93 23.28 246.93 10.95 254.74 10.95 254.74 13.27"/><path d="M267.86,11v7.87c0,2.77-2.12,4.73-5.08,4.73a4.76,4.76,0,0,1-5.09-4.73V11h2.62v7.73a2.54,2.54,0,0,0,5.08,0V11Z"/><polygon points="282.86 10.56 282.92 10.56 282.92 23.28 280.46 23.28 280.46 16.07 276.68 19.58 272.9 16.07 272.9 23.28 270.43 23.28 270.43 10.56 270.49 10.56 276.68 16.34 282.86 10.56"/><path d="M217.93,43V51.4h-6.62v3.82h-2.5V43Zm-2.53,2.31h-4.09v3.81h4.06Z"/><polygon points="228.26 45.28 223.02 45.28 223.02 47.79 228.26 47.79 228.26 49.99 223.02 49.99 223.02 52.91 228.26 52.91 228.26 55.22 220.49 55.22 220.49 42.97 228.26 42.97 228.26 45.28"/><polygon points="273.51 45.28 268.27 45.28 268.27 47.79 273.51 47.79 273.51 49.99 268.27 49.99 268.27 52.91 273.51 52.91 273.51 55.22 265.74 55.22 265.74 42.97 273.51 42.97 273.51 45.28"/><path d="M230.23,49.09a6.44,6.44,0,1,1,0,.1v-.1m10.43,0a4.07,4.07,0,1,0,0,.13v-.13"/><path d="M254.31,43V51.4h-6.59v3.82h-2.54V43Zm-2.53,2.31h-4.06v3.81h4.06Z"/><polygon points="256.97 55.22 256.97 42.97 259.5 42.97 259.5 52.91 264.4 52.91 264.4 55.22 256.97 55.22"/><polygon points="233.39 29.35 227.33 29.35 227.33 32.41 231.76 32.41 231.76 34.71 227.33 34.71 227.33 39.28 224.81 39.28 224.81 34.71 223.62 34.71 223.62 32.41 224.81 32.41 224.81 27.05 233.39 27.05 233.39 29.35"/><polygon points="247.45 27.05 247.45 29.35 244.39 29.35 244.39 39.28 241.86 39.28 241.86 29.35 238.78 29.35 238.78 27.05 247.45 27.05"/><polygon points="257.49 27.05 260.02 27.05 260.02 39.28 257.49 39.28 257.49 33.02 252.01 33.02 252.01 39.28 249.48 39.28 249.48 27.05 252.01 27.05 252.01 30.72 257.49 30.72 257.49 27.05"/><polygon points="279.94 34.69 279.94 36.98 283.04 36.98 283.04 27.05 285.57 27.05 285.57 39.28 277.58 39.28 277.58 34.69 279.94 34.69"/><polygon points="313.48 26.76 315.7 27.88 309.61 39.67 309.53 39.67 306.73 34.22 303.94 39.67 303.86 39.67 297.77 27.88 299.99 26.76 303.92 34.49 305.39 31.62 303.45 27.85 305.53 26.76 306.73 29.21 307.94 26.76 310.02 27.85 308.08 31.63 309.55 34.49 313.48 26.76"/><rect x="317.42" y="27.05" width="2.53" height="12.23"/><path d="M323.82,35a2.38,2.38,0,0,0,2.3,2.3c1.16,0,2.1-.51,2.1-1.67s-1-1.51-2.41-2c-1.75-.67-3.38-1.49-3.38-3.56s1.63-3.27,3.77-3.27a3.6,3.6,0,0,1,3.91,3.1l-2.36.45a1.49,1.49,0,0,0-1.47-1.4A1.17,1.17,0,0,0,325,30a1,1,0,0,0,0,.17c0,1,1.22,1.36,2.61,1.89,1.65.61,3.24,1.51,3.24,3.63,0,2.55-2,3.93-4.71,3.91a4.36,4.36,0,0,1-4.69-4Z"/><polygon points="340.69 27.05 343.22 27.05 343.22 39.28 340.69 39.28 340.69 33.02 335.21 33.02 335.21 39.28 332.68 39.28 332.68 27.05 335.21 27.05 335.21 30.72 340.69 30.72 340.69 27.05"/><polygon points="270.5 29.35 265.28 29.35 265.28 31.86 270.5 31.86 270.5 34.06 265.28 34.06 265.28 36.98 270.5 36.98 270.5 39.28 262.75 39.28 262.75 27.05 270.5 27.05 270.5 29.35"/><polygon points="296.05 29.35 290.82 29.35 290.82 31.86 296.05 31.86 296.05 34.06 290.82 34.06 290.82 36.98 296.05 36.98 296.05 39.28 288.3 39.28 288.3 27.05 296.05 27.05 296.05 29.35"/><polygon points="111.52 42.32 70.87 0 70.56 0 70.56 64.31 80.77 64.31 80.77 23.77 121.43 66.09 121.74 66.09 121.74 1.77 111.52 1.77 111.52 42.32"/><path d="M182.61,1.77h-10.3V41.28c0,8.44-6.15,14.28-14.7,14.28-8.76,0-14.8-5.84-14.8-14.28V1.77H132.47l-.1,39.82c0,14.07,10.42,23.77,25.22,23.77s25.12-9.7,25.12-23.77Z"/><path d="M0,58.54l7.19,7.71L20.77,52.92H49.83V64.31H60.25V0h-.31Zm31.31-16,18.48-18.2v18.2Z"/><path d="M208.34,33a6.44,6.44,0,1,1,0,.1V33m10.43,0a4.07,4.07,0,1,0,0,.13V33"/></g></g></svg>