<svg xmlns="http://www.w3.org/2000/svg" viewBox="0 0 43.43 34.11"><title>Audio</title><g id="Layer_2" data-name="Layer 2"><g id="Main"><path d="M17,.91,7.62,10.43H3a3,3,0,0,0-3,3v7.71a3,3,0,0,0,3,3H8.07L17,33.19a3,3,0,0,0,5.19-2.12V3A3,3,0,0,0,17,.91Z" style="fill:#fbbf61"/><path d="M24.88,24a1.16,1.16,0,0,1-.24-2.3c1.6-.34,2.21-2.28,2.25-3.83,0-1.9-.75-4.13-2.3-4.54a1.16,1.16,0,0,1,.59-2.25c2.87.75,4.11,4.07,4,6.84-.07,3.17-1.68,5.55-4.1,6.06Z" style="fill:#fdd085"/><path d="M28.42,29a1.16,1.16,0,0,1-.29-2.29c4.18-1.09,6-5.72,5.89-9.82-.08-3.95-1.91-8.32-5.85-9.19a1.16,1.16,0,0,1,.5-2.27c5.17,1.14,7.58,6.55,7.68,11.42.1,5-2.23,10.71-7.63,12.12A1.14,1.14,0,0,1,28.42,29Z" style="fill:#fdd085"/><path d="M32.68,33.93a1.16,1.16,0,0,1-.27-2.3C38.33,30.24,41,23.7,41.1,17.85,41.17,11.79,38.5,5,32.39,3.4A1.16,1.16,0,1,1,33,1.14C40.3,3,43.5,10.9,43.43,17.87c-.07,6.77-3.34,14.34-10.49,16A1.15,1.15,0,0,1,32.68,33.93Z" style="fill:#fdd085"/></g></g></svg>