<svg xmlns="http://www.w3.org/2000/svg" viewBox="0 0 139.24 53.26"><title>BHlogo</title><g id="Layer_2" data-name="Layer 2"><g id="Main"><path d="M20.86,49.21l2.36,4.06,2.3-4.06a4.68,4.68,0,0,0-4.66,0Z" style="fill:#ffa400"/><path d="M4.69,13.14H0l2.33,4A4.66,4.66,0,0,0,4,15.49a4.73,4.73,0,0,0,.65-2.35Z" style="fill:#00bfd6"/><polygon points="8.72 36.55 6.07 37.26 5.53 40.31 9.25 40.31 8.72 36.55 8.72 36.55" style="fill:#b3282d"/><polygon points="3.51 19.21 7.52 19.58 6.98 25.22 3.51 19.21 3.51 19.21" style="fill:#b3282d"/><polygon points="2.19 36.56 0.04 40.31 4.34 40.31 4.86 37.38 2.19 36.56 2.19 36.56" style="fill:#ffa400"/><path d="M20.15,5s4.6-1,5.14-1.1c0,0-.77-1.41-2.25-3.94L20.15,5Z" style="fill:#b3282d"/><polygon points="8.47 27.98 7.76 26.82 5.41 30.93 6.92 31.79 8.47 27.98 8.47 27.98" style="fill:#250671"/><polygon points="38.99 20.75 40.31 16.61 43.69 17.38 41.47 21.27 38.99 20.75 38.99 20.75" style="fill:#250671"/><polygon points="18.72 45.48 22.56 44.84 20.52 41.49 17.68 43.67 18.72 45.48 18.72 45.48" style="fill:#b3282d"/><path d="M17.23,42.88l3.2-2.49H15.79l1.44,2.49Z" style="fill:#ffa400"/><polygon points="36.44 22.8 38.51 26.32 40.89 22.16 38.59 21.65 36.44 22.8 36.44 22.8" style="fill:#b3282d"/><polygon points="23.74 44.43 24.4 47.26 26.2 48 27.94 44.94 23.74 44.43 23.74 44.43" style="fill:#00bfd6"/><polygon points="43.97 36.18 46.38 40.34 42.66 40.34 43.97 36.18 43.97 36.18" style="fill:#b3282d"/><polygon points="22.95 5.64 19.41 6.4 17.3 10.12 20.98 10.04 22.95 5.64 22.95 5.64" style="fill:#00bfd6"/><path d="M40.54,35.79l2.88-.48-1.7-2.9-4.53-.15,3.35,3.53Z" style="fill:#00bfd6"/><polygon points="26.95 11.36 28.76 9.81 26.09 5.16 24.46 5.5 23.32 7.98 26.95 11.36 26.95 11.36" style="fill:#ffa400"/><polygon points="36.45 16.42 39.15 16.46 40.2 13.18 37.45 13.17 36.45 16.42 36.45 16.42" style="fill:#b3282d"/><polygon points="36.47 37.66 36.76 33.31 40.14 36.9 38.01 38.05 36.47 37.66 36.47 37.66" style="fill:#c7ecf2"/><polygon points="17.82 25.59 15.29 23.89 12.82 27.86 16.08 29.64 17.82 25.59 17.82 25.59" style="fill:#00bfd6"/><path d="M17.82,37.28l3.06-3.54-1.81-1.13s-2.28,1.31-3.38,2l2.14,2.64Z" style="fill:#00bfd6"/><path d="M14.35,34.3s3.35-2,3.8-2.29c0,0-2.78-1.61-3.24-1.84l-.55,4.13Z" style="fill:#ffa400"/><polygon points="11.07 21.08 12.91 25.99 10.07 28.44 8.41 25.65 11.07 21.08 11.07 21.08" style="fill:#b3282d"/><polygon points="17.83 19.82 20.2 22.17 22.46 21.45 21.52 17.27 17.83 19.82 17.83 19.82" style="fill:#c7ecf2"/><polygon points="26.15 21.63 24.81 14.19 22.07 14.81 23.23 19.66 26.15 21.63 26.15 21.63" style="fill:#00bfd6"/><polygon points="31.92 20.46 26.92 20.4 28.49 24.66 31.92 20.46 31.92 20.46" style="fill:#c7ecf2"/><polygon points="35.45 37.67 32.72 36.7 35.25 32.24 35.45 37.67 35.45 37.67" style="fill:#250671"/><polygon points="35.56 23.36 37.84 27.32 34.28 26.82 35.56 23.36 35.56 23.36" style="fill:#ffa400"/><polygon points="36.27 28.36 30.05 26.84 31.6 29.98 34.72 31.1 36.27 28.36 36.27 28.36" style="fill:#c7ecf2"/><polygon points="13.57 24.75 16.5 19.93 14.48 17.92 12.16 20.9 13.57 24.75 13.57 24.75" style="fill:#250671"/><polygon points="11.61 13.14 12.92 13.14 14.74 15.77 11.78 19.6 11.61 13.14 11.61 13.14" style="fill:#00bfd6"/><polygon points="14.58 40.31 10.2 40.31 9.73 37.16 14.58 40.31 14.58 40.31" style="fill:#00bfd6"/><polygon points="14.71 14.61 16.05 15.73 19.6 11.21 16.66 11.23 14.71 14.61 14.71 14.61" style="fill:#b3282d"/><polygon points="11.01 32.26 9.91 35.98 12.09 37.37 13.66 33.85 11.01 32.26 11.01 32.26" style="fill:#b3282d"/><path d="M9.07,35.24s1.21-4.06,1.21-4.08L9.08,29,6.27,36l2.8-.76Z" style="fill:#c7ecf2"/><path d="M20.17,48l3-.7c-.17-.72-.34-1.46-.34-1.46l-3.59.59L20.17,48Z" style="fill:#00bfd6"/><path d="M25.72,39.4l-2.8-.11a5.54,5.54,0,0,1-1.23,2.29l2,2a5.33,5.33,0,0,0,2-4.21Z" style="fill:#c7ecf2"/><path d="M39.48,40.34h2.07l.89-3.66L38.76,39l.71,1.36Z" style="fill:#ffa400"/><path d="M41.2,31.42l-1.84-3.17-2.09.62s-1.14,2-1.3,2.3l5.22.25Z" style="fill:#b3282d"/><polygon points="38.28 40.34 37.57 38.99 33.24 37.88 31.51 40.31 38.28 40.34 38.28 40.34" style="fill:#00bfd6"/><polygon points="32.02 37.92 28.74 35.12 26.3 38.88 30.52 40.48 32.02 37.92 32.02 37.92" style="fill:#b3282d"/><path d="M23.38,38.37,26.14,37l1.36-2.5-4.94-.83.83,4.66Z" style="fill:#ffa400"/><path d="M21.13,34.91l-2.81,3.28,2.84,1.61a3.48,3.48,0,0,0,1-2.65s0-.05,0-.08a3.28,3.28,0,0,0-1.07-2.16Z" style="fill:#b3282d"/><path d="M5.21,36.27l1.41-3.42-1.74-1s-2.1,3.63-2.09,3.66l2.43.73Z" style="fill:#00bfd6"/><path d="M25.61,43.66l2.86.39c.06-.1,1.53-2.71,1.56-2.76l-3-1.13a5.51,5.51,0,0,1-1.4,3.5Z" style="fill:#250671"/><polygon points="14.79 35.12 18.25 39.36 15.14 39.35 12.96 37.93 14.79 35.12 14.79 35.12" style="fill:#250671"/><path d="M11.53,31.21a2.92,2.92,0,0,0,2.06,1.39L14,29.67l-1.87-1-.66-.36a2.93,2.93,0,0,0,0,2.94Z" style="fill:#250671"/><polygon points="36.39 21.09 37.69 21.35 38.95 17.59 34.37 17.54 36.39 21.09 36.39 21.09" style="fill:#c7ecf2"/><polygon points="25.67 26.21 27.54 25.23 27 23.55 24.02 21.55 21.33 23.23 25.67 26.21 25.67 26.21" style="fill:#250671"/><polygon points="18.98 26.13 22.16 28.24 24.83 26.73 21.65 24.68 18.98 26.13 18.98 26.13" style="fill:#00bfd6"/><path d="M24.13,28.35a4.65,4.65,0,0,0,5.69,1.28l-1.72-3.48-4,2.2Z" style="fill:#ffa400"/><polygon points="24.8 13.07 21.28 13.86 20.04 12.73 22.82 9.05 25.98 12.05 24.8 13.07 24.8 13.07" style="fill:#c7ecf2"/><path d="M29,25.53,32,22.34a3.87,3.87,0,0,1,1.06,4.2l-4.14-1Z" style="fill:#250671"/><path d="M33.58,22.75A4.6,4.6,0,0,1,34,23.8l1.63-2.05-2-3.37-1,3.26a4.53,4.53,0,0,1,.91,1.12Z" style="fill:#00bfd6"/><path d="M28.51,16.44,26,15.77l.62,3.52h.86a4.56,4.56,0,0,1,1-2.85Z" style="fill:#00bfd6"/><polygon points="46.09 13.19 44.27 16.34 40.72 15.52 41.43 13.19 46.09 13.19 46.09 13.19" style="fill:#00bfd6"/><polygon points="20.69 23.96 18.81 25.01 15.92 23.09 17.33 20.71 20.69 23.96 20.69 23.96" style="fill:#b3282d"/><polygon points="19.09 13.4 15.78 17.74 17.21 19.06 21.24 16.24 21.06 15.28 19.09 13.4 19.09 13.4" style="fill:#ffa400"/><polygon points="34.3 31.99 32.84 34.55 30.45 30.63 34.3 31.99 34.3 31.99" style="fill:#00bfd6"/><path d="M31.58,36.18a4.65,4.65,0,0,0,.1-.9,4.54,4.54,0,0,0-2-3.78l-.43,2.72,2.31,2Z" style="fill:#c7ecf2"/><polyline points="18.45 26.96 17.05 30.19 21.26 32.59 23.95 30.21" style="fill:#c7ecf2"/><polygon points="10.82 15.5 10.72 13.14 6.07 13.14 8.95 17.05 10.82 15.5 10.82 15.5" style="fill:#250671"/><polygon points="3.07 18.09 7.21 18.45 8.06 17.75 5.94 14.63 3.07 18.09 3.07 18.09" style="fill:#ffa400"/><polygon points="8.5 23.7 10.85 19.64 10.78 16.88 8.64 18.68 8.22 23.28 8.5 23.7 8.5 23.7" style="fill:#c7ecf2"/><polygon points="28.35 33.67 28.82 31.06 24.87 30.62 22.74 32.75 28.35 33.67 28.35 33.67" style="fill:#b3282d"/><polygon points="31.72 13.17 33.39 16.39 35.48 16.41 36.49 13.17 31.72 13.17 31.72 13.17" style="fill:#ffa400"/><path d="M28.47,19.46l3.86,0L33,17.33,32,15.6a3.87,3.87,0,0,0-3.51,3.86Z" style="fill:#b3282d"/><path d="M25.9,13.74l.18,1.09,3.37.88a4.62,4.62,0,0,1,.58-.4,4.52,4.52,0,0,1,1.53-.55l-2.18-3.89s-1.69,1.37-3.48,2.87Z" style="fill:#250671"/><path d="M53.12,12.61h3.21c1.3,0,2.18.42,2.18,1.69a1.5,1.5,0,0,1-.93,1.43,1.67,1.67,0,0,1,1.25,1.73c0,1.39-1.18,2-2.41,2H53.12Zm1.5,2.76h1.52c.53,0,.92-.24.92-.81s-.5-.78-1-.78H54.62Zm0,2.9h1.61c.59,0,1.11-.19,1.11-.9s-.44-1-1.08-1H54.62Z" style="fill:#444"/><path d="M59.85,12.61H65v1.26H61.35v1.46h3.31V16.5H61.35v1.67H65v1.26H59.85Z" style="fill:#444"/><path d="M66,12.61h1.5v6.83H66Z" style="fill:#444"/><path d="M70.38,13.87h-2V12.61h5.6v1.26h-2v5.57h-1.5Z" style="fill:#444"/><path d="M77.37,12.61h1.5v2.62h2.76V12.61h1.5v6.83h-1.5V16.49H78.88v2.95h-1.5Z" style="fill:#444"/><path d="M86.33,12.61h1.54l2.55,6.83H88.86l-.52-1.52H85.79l-.54,1.52H83.73Zm-.14,4.19H88l-.86-2.51h0Z" style="fill:#444"/><path d="M91.82,13.87h-2V12.61h5.6v1.26h-2v5.57h-1.5Z" style="fill:#444"/><path d="M96.15,12.61H101v1.26h-3.3v1.58h2.86v1.17H97.65v2.82h-1.5Z" style="fill:#444"/><path d="M107.62,16.86c0,1.85-1.09,2.75-2.92,2.75s-2.91-.89-2.91-2.75V12.61h1.5v4.25c0,.75.19,1.48,1.41,1.48s1.42-.47,1.42-1.48V12.61h1.5Z" style="fill:#444"/><path d="M110.42,13.87h-2V12.61H114v1.26h-2v5.57h-1.5Z" style="fill:#444"/><path d="M115.78,17.17c0,.91.71,1.26,1.51,1.26.53,0,1.33-.15,1.33-.85s-1-.86-2-1.13-2-.66-2-1.94,1.32-2.07,2.55-2.07c1.43,0,2.74.62,2.74,2.2h-1.45c0-.82-.63-1-1.35-1-.48,0-1,.2-1,.77s.32.59,2,1c.5.12,2,.44,2,2,0,1.25-1,2.19-2.84,2.19-1.51,0-2.93-.75-2.91-2.43Z" style="fill:#444"/><path d="M124,12.45a3.31,3.31,0,0,1,3.36,3.61,3.36,3.36,0,1,1-6.72,0A3.31,3.31,0,0,1,124,12.45Zm0,5.89c1.35,0,1.86-1.15,1.86-2.29s-.51-2.34-1.86-2.34-1.86,1.15-1.86,2.34S122.67,18.34,124,18.34Z" style="fill:#444"/><path d="M129.91,13.87h-2V12.61h5.6v1.26h-2v5.57h-1.5Z" style="fill:#444"/><path d="M54.75,24.85H52.48v-.77h5.46v.77H55.66v6.06h-.91Z" style="fill:#444"/><path d="M58.56,24.09h.81V26.7h0A1.67,1.67,0,0,1,61,25.86c1.3,0,1.7.75,1.7,1.81v3.25h-.81V27.57a.93.93,0,0,0-1-1,1.39,1.39,0,0,0-1.46,1.55v2.79h-.81Z" style="fill:#444"/><path d="M68.1,29.35A2,2,0,0,1,66,31c-1.58,0-2.32-1.09-2.37-2.6a2.38,2.38,0,0,1,2.32-2.57c1.75,0,2.29,1.64,2.24,2.83h-3.7A1.46,1.46,0,0,0,66,30.31a1.19,1.19,0,0,0,1.28-1ZM67.31,28a1.42,1.42,0,0,0-1.43-1.4A1.41,1.41,0,0,0,64.47,28Z" style="fill:#444"/><path d="M71.83,24.09h1.24l2.15,5.74,2.16-5.74h1.24v6.83h-.86V25.23h0l-2.13,5.68h-.77l-2.13-5.68h0v5.68h-.86Z" style="fill:#444"/><path d="M84.1,30.92h-.77v-.78h0a1.72,1.72,0,0,1-1.61.9c-1.3,0-1.7-.75-1.7-1.81V26h.81v3.35a.93.93,0,0,0,1,1,1.39,1.39,0,0,0,1.46-1.55V26h.81Z" style="fill:#444"/><path d="M85.82,29.36c0,.73.66,1,1.33,1,.51,0,1.2-.11,1.2-.74s-.8-.74-1.62-.92-1.62-.45-1.62-1.4,1-1.41,1.85-1.41c1.09,0,2,.34,2,1.55h-.81c-.06-.63-.61-.83-1.15-.83s-1.05.13-1.05.63.86.68,1.62.86,1.62.45,1.62,1.41c0,1.18-1.1,1.56-2.11,1.56s-2-.45-2.09-1.67Z" style="fill:#444"/><path d="M94.32,29.35A2,2,0,0,1,92.21,31c-1.58,0-2.32-1.09-2.37-2.6a2.38,2.38,0,0,1,2.32-2.57c1.75,0,2.29,1.64,2.24,2.83H90.7a1.46,1.46,0,0,0,1.54,1.63,1.19,1.19,0,0,0,1.28-1ZM93.54,28a1.42,1.42,0,0,0-1.43-1.4A1.41,1.41,0,0,0,90.7,28Z" style="fill:#444"/><path d="M99.34,30.92h-.77v-.78h0a1.72,1.72,0,0,1-1.61.9c-1.3,0-1.7-.75-1.7-1.81V26h.81v3.35a.93.93,0,0,0,1,1,1.39,1.39,0,0,0,1.46-1.55V26h.81Z" style="fill:#444"/><path d="M100.56,26h.77v.73h0a1.82,1.82,0,0,1,1.6-.84,1.31,1.31,0,0,1,1.36.84,1.83,1.83,0,0,1,1.55-.84c1,0,1.65.41,1.65,1.44v3.63h-.81V27.67c0-.61-.16-1.1-1-1.1a1.2,1.2,0,0,0-1.29,1.26v3.08h-.81V27.67c0-.64-.2-1.1-.93-1.1a1.33,1.33,0,0,0-1.32,1.26v3.08h-.81Z" style="fill:#444"/><path d="M114.4,23.92a3.28,3.28,0,0,1,3.27,3.58,3.28,3.28,0,1,1-6.54,0A3.28,3.28,0,0,1,114.4,23.92Zm0,6.39c1.66,0,2.36-1.43,2.36-2.81s-.7-2.81-2.36-2.81S112,26.12,112,27.5,112.74,30.31,114.4,30.31Z" style="fill:#444"/><path d="M119,26.69h-.83V26H119v-.74c0-.8.48-1.22,1.37-1.22a2,2,0,0,1,.53.08v.71a1.54,1.54,0,0,0-.46-.07c-.39,0-.62.12-.62.55V26h1v.72h-1v4.23H119Z" style="fill:#444"/><path d="M125.82,24.85h-2.28v-.77H129v.77h-2.28v6.06h-.91Z" style="fill:#444"/><path d="M129.63,24.09h.81V26.7h0a1.67,1.67,0,0,1,1.56-.84c1.3,0,1.7.75,1.7,1.81v3.25h-.81V27.57a.93.93,0,0,0-1-1,1.39,1.39,0,0,0-1.46,1.55v2.79h-.81Z" style="fill:#444"/><path d="M139.16,29.35A2,2,0,0,1,137,31c-1.58,0-2.32-1.09-2.37-2.6A2.38,2.38,0,0,1,137,25.86c1.75,0,2.29,1.64,2.24,2.83h-3.7a1.46,1.46,0,0,0,1.54,1.63,1.19,1.19,0,0,0,1.28-1ZM138.38,28a1.42,1.42,0,0,0-1.43-1.4,1.41,1.41,0,0,0-1.42,1.4Z" style="fill:#444"/><path d="M56.67,39a1.77,1.77,0,0,1-2,1.87,1.8,1.8,0,0,1-2-2v-.42h.91v.29c0,.79.21,1.36,1.1,1.36s1.09-.48,1.09-1.23v-5h.91Z" style="fill:#444"/><path d="M62.25,39.09a2,2,0,0,1-2.11,1.68c-1.58,0-2.32-1.09-2.37-2.6a2.38,2.38,0,0,1,2.32-2.57c1.75,0,2.29,1.64,2.24,2.83h-3.7a1.46,1.46,0,0,0,1.54,1.63,1.19,1.19,0,0,0,1.28-1Zm-.78-1.38A1.42,1.42,0,0,0,60,36.32a1.41,1.41,0,0,0-1.42,1.4Z" style="fill:#444"/><path d="M68.07,40.66h-.86l-1-3.93h0l-1,3.93h-.88l-1.59-4.95h.9l1.12,4h0l1-4h.89l1,4h0l1.11-4h.84Z" style="fill:#444"/><path d="M71.28,34.83h-.81v-1h.81Zm-.81.89h.81v4.95h-.81Z" style="fill:#444"/><path d="M73,39.1c0,.73.66,1,1.33,1,.51,0,1.2-.12,1.2-.74s-.8-.74-1.62-.92S72.33,38,72.33,37s1-1.41,1.85-1.41c1.09,0,2,.34,2,1.55h-.81c-.06-.63-.61-.83-1.15-.83s-1.05.13-1.05.63.86.68,1.62.86,1.62.45,1.62,1.41c0,1.18-1.1,1.56-2.11,1.56s-2-.45-2.09-1.67Z" style="fill:#444"/><path d="M77.33,33.83h.81v2.61h0a1.67,1.67,0,0,1,1.56-.84c1.3,0,1.7.75,1.7,1.81v3.25h-.81V37.31a.93.93,0,0,0-1-1,1.39,1.39,0,0,0-1.46,1.55v2.79h-.81Z" style="fill:#444"/><path d="M85.44,33.83h3a2,2,0,1,1,0,4H86.35v2.79h-.91Zm.91,3.27h1.78c1,0,1.49-.44,1.49-1.25s-.47-1.25-1.49-1.25H86.35Z" style="fill:#444"/><path d="M95.72,39.09a2,2,0,0,1-2.11,1.68c-1.58,0-2.32-1.09-2.37-2.6a2.38,2.38,0,0,1,2.32-2.57c1.75,0,2.29,1.64,2.24,2.83h-3.7a1.46,1.46,0,0,0,1.54,1.63,1.19,1.19,0,0,0,1.28-1Zm-.78-1.38a1.42,1.42,0,0,0-1.43-1.4,1.41,1.41,0,0,0-1.42,1.4Z" style="fill:#444"/><path d="M98.77,35.6a2.35,2.35,0,0,1,2.4,2.59,2.41,2.41,0,1,1-4.8,0A2.35,2.35,0,0,1,98.77,35.6Zm0,4.46c.85,0,1.54-.67,1.54-1.87s-.69-1.88-1.54-1.88-1.54.67-1.54,1.88S97.92,40.06,98.77,40.06Z" style="fill:#444"/><path d="M102.16,35.72H103v.67h0a1.66,1.66,0,0,1,1.58-.78,2.32,2.32,0,0,1,2.28,2.6,2.28,2.28,0,0,1-2.26,2.57A1.89,1.89,0,0,1,103,40h0v2.55h-.81Zm2.3.6c-1.09,0-1.51.94-1.51,1.87s.44,1.88,1.56,1.88,1.48-.95,1.48-1.91S105.5,36.32,104.45,36.32Z" style="fill:#444"/><path d="M107.85,33.83h.81v6.83h-.81Z" style="fill:#444"/><path d="M114.14,39.09A2,2,0,0,1,112,40.78c-1.58,0-2.32-1.09-2.37-2.6A2.38,2.38,0,0,1,112,35.6c1.75,0,2.29,1.64,2.24,2.83h-3.7a1.46,1.46,0,0,0,1.54,1.63,1.19,1.19,0,0,0,1.28-1Zm-.78-1.38a1.42,1.42,0,0,0-1.43-1.4,1.41,1.41,0,0,0-1.42,1.4Z" style="fill:#444"/></g></g></svg>