<svg xmlns="http://www.w3.org/2000/svg" viewBox="0 0 237.5 43.92"><title>Logo</title><g id="Layer_2" data-name="Layer 2"><g id="Layer_1-2" data-name="Layer 1"><path d="M31.18,16a.82.82,0,0,1,0,1.16.85.85,0,0,1-.61.23H21.13a.86.86,0,0,1-.86-.86V1.08a.82.82,0,0,1,.25-.6.85.85,0,0,1,1.46.6V15.74h8.58A.85.85,0,0,1,31.18,16Z" style="fill:#e98a24"/><path d="M46.15,15.94a.77.77,0,0,1,.24.58.81.81,0,0,1-.24.59.83.83,0,0,1-.61.24H35.24a.86.86,0,0,1-.86-.86V1.08a.81.81,0,0,1,.25-.61.84.84,0,0,1,.6-.24H45.53a.83.83,0,0,1,.61.24.81.81,0,0,1,.24.59.77.77,0,0,1-.24.58.85.85,0,0,1-.61.23H36.1V7.92H43a.83.83,0,0,1,.61.24.81.81,0,0,1,.24.59.79.79,0,0,1-.25.59.84.84,0,0,1-.6.24H36.1v6.12h9.44A.85.85,0,0,1,46.15,15.94Z" style="fill:#e98a24"/><path d="M62.2,1.14a8.19,8.19,0,0,1,3.14,3.14,9,9,0,0,1,1.13,4.5,9,9,0,0,1-1.13,4.51,8.17,8.17,0,0,1-3.14,3.15,9.42,9.42,0,0,1-9,0,8.18,8.18,0,0,1-3.13-3.15A9,9,0,0,1,49,8.78a9,9,0,0,1,1.13-4.5,8.21,8.21,0,0,1,3.13-3.14,9.42,9.42,0,0,1,9,0ZM54.08,2.57a6.81,6.81,0,0,0-2.53,2.58,7.27,7.27,0,0,0-.92,3.63,7.31,7.31,0,0,0,.92,3.65A6.81,6.81,0,0,0,54.08,15a7.42,7.42,0,0,0,7.24,0,6.81,6.81,0,0,0,2.53-2.58,7.31,7.31,0,0,0,.92-3.65,7.27,7.27,0,0,0-.92-3.63,6.81,6.81,0,0,0-2.53-2.58,7.42,7.42,0,0,0-7.24,0Z" style="fill:#e98a24"/><path d="M82.48.46a.84.84,0,0,1,.6-.24.83.83,0,0,1,.86.86V16.5a.84.84,0,0,1-.24.6.81.81,0,0,1-.61.25.72.72,0,0,1-.64-.29L71.93,3.29V16.5a.84.84,0,0,1-.24.6.81.81,0,0,1-.61.25.83.83,0,0,1-.86-.86V1.08A.86.86,0,0,1,71.74.53L82.23,14.31V1.08A.81.81,0,0,1,82.48.46Z" style="fill:#e98a24"/><path d="M107.87.46a.84.84,0,0,1,.6-.24.83.83,0,0,1,.86.86V16.5a.84.84,0,0,1-.24.6.81.81,0,0,1-.61.25.86.86,0,0,1-.86-.86v-7H96.91v7a.84.84,0,0,1-.24.6.81.81,0,0,1-.61.25.86.86,0,0,1-.86-.86V1.08a.81.81,0,0,1,.25-.61.84.84,0,0,1,.6-.24.83.83,0,0,1,.86.86V7.92h10.71V1.08A.81.81,0,0,1,107.87.46Z" style="fill:#e98a24"/><path d="M115,15.53a1.26,1.26,0,0,1,.37.91,1.26,1.26,0,1,1-1.27-1.29A1.21,1.21,0,0,1,115,15.53Z" style="fill:#e98a24"/><path d="M136.13.46a8.2,8.2,0,0,1,2.5,1.47.58.58,0,0,1,.24.5.59.59,0,0,1-.09.32.51.51,0,0,1-.24.21.4.4,0,0,1-.2.24.65.65,0,0,1-.33.09.79.79,0,0,1-.55-.2A5.48,5.48,0,0,0,135.6,2a7.15,7.15,0,0,0-2.35-.35,6.39,6.39,0,0,0-3.42,1,7.21,7.21,0,0,0-2.51,2.62,7.09,7.09,0,0,0-.93,3.56,7.24,7.24,0,0,0,.92,3.6,7,7,0,0,0,2.5,2.61,6.48,6.48,0,0,0,3.45,1,6.77,6.77,0,0,0,4.32-1.54.82.82,0,0,1,.48-.18.81.81,0,0,1,.81.83.88.88,0,0,1-.24.61,7.65,7.65,0,0,1-5.38,1.89A8.1,8.1,0,0,1,129,16.39a8.87,8.87,0,0,1-4.26-7.62,8.77,8.77,0,0,1,1.14-4.39A8.67,8.67,0,0,1,129,1.19,8.14,8.14,0,0,1,133.25,0,8.53,8.53,0,0,1,136.13.46Z" style="fill:#e98a24"/><path d="M155.36.46a.89.89,0,0,1,1.22,0,.84.84,0,0,1,.24.61V16.5a.84.84,0,0,1-.24.6.86.86,0,0,1-1.47-.6v-7H144.4v7a.84.84,0,0,1-.24.6.81.81,0,0,1-.62.25.86.86,0,0,1-.86-.86V1.08a.81.81,0,0,1,.25-.61.84.84,0,0,1,.6-.24.83.83,0,0,1,.86.86V7.92h10.71V1.08A.81.81,0,0,1,155.36.46Z" style="fill:#e98a24"/><path d="M174.38,16.5a.87.87,0,0,1-1.67.33l-1.47-3.56h-8.49l-1.47,3.56a.75.75,0,0,1-.79.53.78.78,0,0,1-.6-.25.86.86,0,0,1-.23-.6,1,1,0,0,1,.07-.37L166.17.81A.85.85,0,0,1,167,.22a.81.81,0,0,1,.81.59l6.47,15.34A.7.7,0,0,1,174.38,16.5Zm-3.73-4.7L167,3l-3.64,8.8Z" style="fill:#e98a24"/><path d="M188,16.64a.64.64,0,0,1-.24.53,1,1,0,0,1-.64.2.8.8,0,0,1-.44-.11.94.94,0,0,1-.31-.33l-4-6.28h-3.62V16.5a.86.86,0,1,1-1.71,0V1.08a.83.83,0,0,1,.86-.86H182a6,6,0,0,1,2.85.67,5,5,0,0,1,2,1.88,5.29,5.29,0,0,1,.71,2.74,4.93,4.93,0,0,1-3.38,4.78l3.6,5.75A1.19,1.19,0,0,1,188,16.64ZM182,9a4.34,4.34,0,0,0,2-.45,3.4,3.4,0,0,0,1.38-1.24,3.33,3.33,0,0,0,.49-1.8,3.63,3.63,0,0,0-.49-1.89A3.39,3.39,0,0,0,184,2.33a4.23,4.23,0,0,0-2-.46h-3.25V9Z" style="fill:#e98a24"/><path d="M203.12.46a.84.84,0,0,1,.6-.24.83.83,0,0,1,.86.86V16.5a.84.84,0,0,1-.24.6.81.81,0,0,1-.61.25.72.72,0,0,1-.64-.29L192.57,3.29V16.5a.84.84,0,0,1-.24.6.82.82,0,0,1-.62.25.83.83,0,0,1-.86-.86V1.08a.86.86,0,0,1,1.51-.55l10.49,13.78V1.08A.81.81,0,0,1,203.12.46Z" style="fill:#e98a24"/><path d="M220.95,15.94a.77.77,0,0,1,.24.58.81.81,0,0,1-.24.59.83.83,0,0,1-.62.24H210a.86.86,0,0,1-.86-.86V1.08a.81.81,0,0,1,.25-.61.84.84,0,0,1,.6-.24h10.29a.83.83,0,0,1,.62.24.81.81,0,0,1,.24.59.77.77,0,0,1-.24.58.86.86,0,0,1-.62.23H210.9V7.92h6.87a.83.83,0,0,1,.61.24.81.81,0,0,1,.24.59.79.79,0,0,1-.25.59.84.84,0,0,1-.6.24H210.9v6.12h9.44A.86.86,0,0,1,220.95,15.94Z" style="fill:#e98a24"/><path d="M236.3.45a.8.8,0,0,1,.21.56,1,1,0,0,1-.15.55l-6,9.46V16.5a.84.84,0,0,1-.24.6.81.81,0,0,1-.61.25.86.86,0,0,1-.86-.86V11l-6-9.46a1,1,0,0,1-.17-.55.74.74,0,0,1,.24-.56.83.83,0,0,1,.59-.23.77.77,0,0,1,.41.1,1.07,1.07,0,0,1,.32.32l5.46,8.8L235,.68a1.31,1.31,0,0,1,.35-.35.82.82,0,0,1,.44-.11A.69.69,0,0,1,236.3.45Z" style="fill:#e98a24"/><path d="M12.44,28.85h2.75a5,5,0,0,1,3.9,1.45,5.84,5.84,0,0,1,1.34,4.11,6,6,0,0,1-1.34,4.16,4.9,4.9,0,0,1-3.85,1.49h-2.8ZM15.09,39a3.74,3.74,0,0,0,3-1.2,5.13,5.13,0,0,0,1-3.41,5,5,0,0,0-1-3.35,3.78,3.78,0,0,0-3-1.18H13.7V39Z" style="fill:#fbb033"/><path d="M22.8,29.77a.85.85,0,0,1-.24-.63.8.8,0,0,1,.24-.61.93.93,0,0,1,1.23,0,.8.8,0,0,1,.24.61.85.85,0,0,1-.24.63.91.91,0,0,1-1.23,0Zm0,2H24v8.28H22.78Z" style="fill:#fbb033"/><path d="M27.2,43.32a1.85,1.85,0,0,1-.93-1.64,1.87,1.87,0,0,1,.32-1,3.09,3.09,0,0,1,.9-.89v-.07a1.61,1.61,0,0,1-.53-.55,1.53,1.53,0,0,1-.21-.8,1.56,1.56,0,0,1,.26-.88,2.35,2.35,0,0,1,.64-.66v-.07a3,3,0,0,1-.75-.94,2.69,2.69,0,0,1-.31-1.28A2.92,2.92,0,0,1,27,33a2.8,2.8,0,0,1,1.11-1,3.26,3.26,0,0,1,1.54-.37,3.43,3.43,0,0,1,1.14.2h2.87v1H31.9a2.33,2.33,0,0,1,.53.79,2.53,2.53,0,0,1,.2,1,2.89,2.89,0,0,1-.39,1.51,2.68,2.68,0,0,1-1.08,1,3.22,3.22,0,0,1-1.52.36,2.79,2.79,0,0,1-1.26-.29,1.9,1.9,0,0,0-.42.45,1.05,1.05,0,0,0-.15.57.81.81,0,0,0,.33.69,2,2,0,0,0,1.14.25h1.66a3.86,3.86,0,0,1,2.15.48,1.67,1.67,0,0,1,.7,1.49,2.25,2.25,0,0,1-.51,1.41,3.5,3.5,0,0,1-1.45,1,5.53,5.53,0,0,1-2.15.39A4.55,4.55,0,0,1,27.2,43.32Zm4.06-.54a2.31,2.31,0,0,0,1-.67,1.37,1.37,0,0,0,.34-.88.88.88,0,0,0-.43-.83,2.66,2.66,0,0,0-1.3-.25H29.32A4.23,4.23,0,0,1,28.26,40a1.8,1.8,0,0,0-.9,1.49A1.25,1.25,0,0,0,28,42.62a3.48,3.48,0,0,0,1.83.41A3.79,3.79,0,0,0,31.26,42.79ZM31,36a2.31,2.31,0,0,0,0-3,1.74,1.74,0,0,0-1.31-.55,1.77,1.77,0,0,0-1.32.55,2,2,0,0,0-.54,1.48A2.07,2.07,0,0,0,28.32,36a1.74,1.74,0,0,0,1.32.57A1.73,1.73,0,0,0,31,36Z" style="fill:#fbb033"/><path d="M35.47,29.77a.85.85,0,0,1-.24-.63.8.8,0,0,1,.24-.61.93.93,0,0,1,1.23,0,.8.8,0,0,1,.24.61.85.85,0,0,1-.24.63.91.91,0,0,1-1.23,0Zm0,2h1.23v8.28H35.45Z" style="fill:#fbb033"/><path d="M40.33,39.57a3.26,3.26,0,0,1-.53-2V32.81H38.56v-.94l1.3-.09L40,29.45h1v2.34h2.27v1H41v4.8a2.08,2.08,0,0,0,.3,1.23,1.17,1.17,0,0,0,1,.41,2.92,2.92,0,0,0,1-.22l.26.94a5,5,0,0,1-1.48.31A2.06,2.06,0,0,1,40.33,39.57Z" style="fill:#fbb033"/><path d="M45,39.65a2.2,2.2,0,0,1-.68-1.72,2.29,2.29,0,0,1,1.23-2.07,10.26,10.26,0,0,1,3.93-1,2.9,2.9,0,0,0-.4-1.6,1.51,1.51,0,0,0-1.37-.62,4.52,4.52,0,0,0-2.51.9l-.5-.85a5.79,5.79,0,0,1,3.21-1.09,2.49,2.49,0,0,1,2.12.9,4,4,0,0,1,.68,2.47v5.12h-1l-.1-1h-.05a4.48,4.48,0,0,1-2.78,1.21A2.5,2.5,0,0,1,45,39.65ZM48.24,39a5.66,5.66,0,0,0,1.24-.88V35.68a8.33,8.33,0,0,0-3,.79,1.58,1.58,0,0,0-.9,1.4,1.28,1.28,0,0,0,.43,1,1.67,1.67,0,0,0,1.09.35A2.62,2.62,0,0,0,48.24,39Z" style="fill:#fbb033"/><path d="M53.75,39.83a2.14,2.14,0,0,1-.32-1.29V27.88h1.23V38.65a.71.71,0,0,0,.11.44.34.34,0,0,0,.28.15,1.57,1.57,0,0,0,.31,0l.17,1a2.17,2.17,0,0,1-.75.12A1.19,1.19,0,0,1,53.75,39.83Z" style="fill:#fbb033"/><path d="M62.89,39.57a4.7,4.7,0,0,1-1.72-2,7.9,7.9,0,0,1,0-6.17,4.75,4.75,0,0,1,1.76-2,4.68,4.68,0,0,1,2.54-.71A3.8,3.8,0,0,1,67.2,29a4.45,4.45,0,0,1,1.31,1l-.7.84a3,3,0,0,0-2.32-1.09,3.26,3.26,0,0,0-1.91.57,3.71,3.71,0,0,0-1.27,1.62,6.25,6.25,0,0,0-.45,2.48,6.6,6.6,0,0,0,.44,2.5,3.66,3.66,0,0,0,1.25,1.65,3.18,3.18,0,0,0,1.9.58,3.11,3.11,0,0,0,1.43-.32,4.43,4.43,0,0,0,1.24-1l.7.79a4.73,4.73,0,0,1-1.52,1.21,4.25,4.25,0,0,1-1.89.41A4.56,4.56,0,0,1,62.89,39.57Z" style="fill:#fbb033"/><path d="M77.08,36.21H71.37a3.32,3.32,0,0,0,.9,2.25,2.72,2.72,0,0,0,2,.8,3.76,3.76,0,0,0,2.1-.67l.46.82a6.22,6.22,0,0,1-1.26.62,4.32,4.32,0,0,1-1.45.23,3.89,3.89,0,0,1-2-.52,3.68,3.68,0,0,1-1.42-1.51,5.32,5.32,0,0,1,0-4.59,3.9,3.9,0,0,1,1.37-1.53,3.34,3.34,0,0,1,1.81-.54,3,3,0,0,1,2.4,1,4.3,4.3,0,0,1,.86,2.84A4.66,4.66,0,0,1,77.08,36.21ZM76,35.3a3.15,3.15,0,0,0-.56-2,1.9,1.9,0,0,0-1.57-.7,2.28,2.28,0,0,0-1.64.7,3.17,3.17,0,0,0-.85,2Z" style="fill:#fbb033"/><path d="M79.22,31.78h1l.1,1.23h.05A6.48,6.48,0,0,1,81.74,32a2.85,2.85,0,0,1,1.44-.38,2.25,2.25,0,0,1,1.91.81,4,4,0,0,1,.61,2.42v5.26H84.46V35a3.08,3.08,0,0,0-.38-1.74,1.43,1.43,0,0,0-1.25-.55,2.19,2.19,0,0,0-1.14.32,6.71,6.71,0,0,0-1.23,1v6.06H79.22Z" style="fill:#fbb033"/><path d="M89.24,39.57a3.26,3.26,0,0,1-.53-2V32.81H87.46v-.94l1.3-.09.15-2.34h1v2.34h2.27v1H90v4.8a2.08,2.08,0,0,0,.3,1.23,1.17,1.17,0,0,0,1,.41,2.92,2.92,0,0,0,1-.22l.26.94a5,5,0,0,1-1.48.31A2.06,2.06,0,0,1,89.24,39.57Z" style="fill:#fbb033"/><path d="M100.18,36.21H94.46a3.32,3.32,0,0,0,.9,2.25,2.72,2.72,0,0,0,2,.8,3.76,3.76,0,0,0,2.1-.67l.46.82a6.22,6.22,0,0,1-1.26.62,4.32,4.32,0,0,1-1.45.23,3.89,3.89,0,0,1-2-.52,3.68,3.68,0,0,1-1.42-1.51,5.32,5.32,0,0,1,0-4.59,3.9,3.9,0,0,1,1.37-1.53A3.34,3.34,0,0,1,97,31.58a3,3,0,0,1,2.4,1,4.3,4.3,0,0,1,.86,2.84A4.66,4.66,0,0,1,100.18,36.21Zm-1.06-.9a3.15,3.15,0,0,0-.56-2,1.9,1.9,0,0,0-1.57-.7,2.28,2.28,0,0,0-1.64.7,3.17,3.17,0,0,0-.85,2Z" style="fill:#fbb033"/><path d="M102.32,31.78h1l.1,1.52h.05a3.73,3.73,0,0,1,1-1.26,2.15,2.15,0,0,1,1.31-.46,2,2,0,0,1,.85.17l-.24,1.09a2.7,2.7,0,0,0-.79-.14,1.8,1.8,0,0,0-1.15.48,3.73,3.73,0,0,0-1,1.48v5.39h-1.23Z" style="fill:#fbb033"/><path d="M4.15,11.62A3.47,3.47,0,0,1,5.56,10.2a4.49,4.49,0,0,1,2.21-.51H12a.6.6,0,0,1,.61.61.61.61,0,0,1-.18.45.59.59,0,0,1-.43.18H7.77a2.85,2.85,0,0,0-2.18.8,2.92,2.92,0,0,0-.75,2.08,3.25,3.25,0,0,0,.31,1.42,2.51,2.51,0,0,0,.84,1,2.07,2.07,0,0,0,1.2.37H12a.58.58,0,0,1,.61.61.63.63,0,0,1-.17.45.59.59,0,0,1-.44.18H.63A.6.6,0,0,1,0,17.21a.58.58,0,0,1,.18-.44.63.63,0,0,1,.45-.17H4.94A3.78,3.78,0,0,1,4,15.31a4,4,0,0,1-.34-1.64A4.31,4.31,0,0,1,4.15,11.62Z" style="fill:#e98a24"/><path d="M4.24,2A3.79,3.79,0,0,1,5.78.57,4.8,4.8,0,0,1,8,.06a.54.54,0,0,1,.41.16.58.58,0,0,1,.15.42v6.5a3.17,3.17,0,0,0,3-3.28,3.59,3.59,0,0,0-.2-1.17,2.84,2.84,0,0,0-.51-.94.7.7,0,0,1-.16-.43A.61.61,0,0,1,10.8,1a.58.58,0,0,1,.43-.21.48.48,0,0,1,.37.18,4.37,4.37,0,0,1,.75,1.35,4.67,4.67,0,0,1-.27,3.88,4.09,4.09,0,0,1-1.59,1.58,4.65,4.65,0,0,1-2.31.57,4.91,4.91,0,0,1-2.33-.54,4,4,0,0,1-1.59-1.5A4.16,4.16,0,0,1,3.69,4.1,4,4,0,0,1,4.24,2ZM5.55,6.13a3.28,3.28,0,0,0,2,1V1.22a3.14,3.14,0,0,0-2,.9,2.71,2.71,0,0,0-.76,2A2.84,2.84,0,0,0,5.55,6.13Z" style="fill:#e98a24"/><path d="M236.7,23.12H1.39V19.62a.57.57,0,0,0-.16-.42A.55.55,0,0,0,.83,19a.57.57,0,0,0-.42.16.57.57,0,0,0-.16.42v8.9a.57.57,0,0,0,.16.42.57.57,0,0,0,.42.16.55.55,0,0,0,.4-.16.57.57,0,0,0,.16-.42v-3.8H236.7a.8.8,0,0,0,0-1.61Z" style="fill:#e98a24"/></g></g></svg>