<svg xmlns="http://www.w3.org/2000/svg" viewBox="0 0 238.01 50"><title>Logo</title><g id="Layer_2" data-name="Layer 2"><g id="Main"><path d="M.6,32.28H3.83A5.93,5.93,0,0,1,8.41,34,6.87,6.87,0,0,1,10,38.83a7.06,7.06,0,0,1-1.58,4.89,5.76,5.76,0,0,1-4.52,1.76H.6Zm3.11,12a4.4,4.4,0,0,0,3.56-1.41,6,6,0,0,0,1.19-4,5.85,5.85,0,0,0-1.19-3.93,4.45,4.45,0,0,0-3.56-1.38H2.08V44.24Z" style="fill:#fbb034"/><path d="M12.78,33.37a1,1,0,0,1-.28-.74.94.94,0,0,1,.28-.71,1.1,1.1,0,0,1,1.44,0,.94.94,0,0,1,.28.71,1,1,0,0,1-.28.74,1.07,1.07,0,0,1-1.44,0Zm0,2.37H14.2v9.73H12.76Z" style="fill:#fbb034"/><path d="M17.94,49.3a2.18,2.18,0,0,1-1.09-1.93,2.21,2.21,0,0,1,.37-1.2,3.64,3.64,0,0,1,1.05-1V45a1.91,1.91,0,0,1-.62-.64,1.79,1.79,0,0,1-.24-.94,1.84,1.84,0,0,1,.31-1,2.76,2.76,0,0,1,.75-.77v-.08a3.48,3.48,0,0,1-.88-1.1,3.16,3.16,0,0,1-.36-1.5,3.43,3.43,0,0,1,.48-1.82A3.29,3.29,0,0,1,19,35.93a3.83,3.83,0,0,1,1.81-.43,4,4,0,0,1,1.34.24h3.37v1.14H23.47a2.74,2.74,0,0,1,.62.92A3,3,0,0,1,24.33,39a3.39,3.39,0,0,1-.46,1.78A3.15,3.15,0,0,1,22.61,42a3.78,3.78,0,0,1-1.79.42A3.27,3.27,0,0,1,19.34,42a2.24,2.24,0,0,0-.49.53,1.24,1.24,0,0,0-.17.67,1,1,0,0,0,.39.81,2.3,2.3,0,0,0,1.33.29h1.95a4.54,4.54,0,0,1,2.53.56,2,2,0,0,1,.82,1.75,2.65,2.65,0,0,1-.6,1.66,4.12,4.12,0,0,1-1.71,1.23,6.51,6.51,0,0,1-2.53.46A5.34,5.34,0,0,1,17.94,49.3Zm4.77-.63a2.72,2.72,0,0,0,1.13-.78,1.61,1.61,0,0,0,.4-1,1,1,0,0,0-.5-1,3.12,3.12,0,0,0-1.52-.29H20.44a5,5,0,0,1-1.24-.16,2.12,2.12,0,0,0-1.06,1.75,1.47,1.47,0,0,0,.78,1.3,4.08,4.08,0,0,0,2.15.48A4.46,4.46,0,0,0,22.72,48.67Zm-.36-8a2.72,2.72,0,0,0,0-3.47,2,2,0,0,0-1.54-.65,2.08,2.08,0,0,0-1.55.65A2.39,2.39,0,0,0,18.64,39a2.43,2.43,0,0,0,.63,1.74,2,2,0,0,0,1.55.67A2,2,0,0,0,22.36,40.7Z" style="fill:#fbb034"/><path d="M27.67,33.37a1,1,0,0,1-.28-.74.94.94,0,0,1,.28-.71,1.1,1.1,0,0,1,1.44,0,.94.94,0,0,1,.28.71,1,1,0,0,1-.28.74,1.07,1.07,0,0,1-1.44,0Zm0,2.37h1.44v9.73H27.65Z" style="fill:#fbb034"/><path d="M33.38,44.88a3.83,3.83,0,0,1-.62-2.35v-5.6H31.3v-1.1l1.52-.1L33,33h1.22v2.75h2.67v1.2H34.23v5.64A2.44,2.44,0,0,0,34.58,44a1.38,1.38,0,0,0,1.19.48,3.44,3.44,0,0,0,1.12-.26l.3,1.1a5.83,5.83,0,0,1-1.75.36A2.42,2.42,0,0,1,33.38,44.88Z" style="fill:#fbb034"/><path d="M38.88,45a2.58,2.58,0,0,1-.8-2,2.69,2.69,0,0,1,1.44-2.44,12.06,12.06,0,0,1,4.61-1.19,3.41,3.41,0,0,0-.47-1.88,1.77,1.77,0,0,0-1.62-.73,5.32,5.32,0,0,0-2.95,1.06l-.58-1a6.8,6.8,0,0,1,3.77-1.28,2.93,2.93,0,0,1,2.49,1.05,4.68,4.68,0,0,1,.8,2.9v6h-1.2l-.12-1.18H44.2a5.26,5.26,0,0,1-3.27,1.42A2.94,2.94,0,0,1,38.88,45Zm3.8-.79a6.64,6.64,0,0,0,1.45-1V40.31a9.78,9.78,0,0,0-3.56.92,1.86,1.86,0,0,0-1.05,1.65,1.5,1.5,0,0,0,.5,1.23,2,2,0,0,0,1.28.41A3.08,3.08,0,0,0,42.68,44.19Z" style="fill:#fbb034"/><path d="M49.15,45.2a2.52,2.52,0,0,1-.38-1.51V31.14h1.44V43.8a.83.83,0,0,0,.13.51.4.4,0,0,0,.33.17,1.82,1.82,0,0,0,.36,0l.2,1.12a2.55,2.55,0,0,1-.88.14A1.4,1.4,0,0,1,49.15,45.2Z" style="fill:#fbb034"/><path d="M63.94,41.31H59l-1.34,4.15h-1.5l4.51-13.18h1.65l4.49,13.18H65.26Zm-.38-1.18L62.88,38q-.8-2.51-1.36-4.47h-.08Q60.77,36,60.09,38l-.68,2.13Z" style="fill:#fbb034"/><path d="M68.61,35.74h1.2l.12,1.79H70A4.4,4.4,0,0,1,71.22,36a2.53,2.53,0,0,1,1.54-.54,2.31,2.31,0,0,1,1,.2L73.49,37a3.2,3.2,0,0,0-.92-.16,2.11,2.11,0,0,0-1.35.56,4.39,4.39,0,0,0-1.15,1.75v6.34H68.61Z" style="fill:#fbb034"/><path d="M76.69,45.1a4.26,4.26,0,0,1-1.63-1.76,5.87,5.87,0,0,1-.59-2.73,5.63,5.63,0,0,1,.63-2.73,4.43,4.43,0,0,1,1.7-1.78,4.55,4.55,0,0,1,2.31-.61,4,4,0,0,1,2.83,1.16l-.76,1a4,4,0,0,0-1-.67,2.38,2.38,0,0,0-1-.23,2.82,2.82,0,0,0-1.62.49,3.31,3.31,0,0,0-1.13,1.37,4.75,4.75,0,0,0-.41,2,4.32,4.32,0,0,0,.86,2.81,2.78,2.78,0,0,0,2.27,1.06,3.47,3.47,0,0,0,2.37-1l.64,1a5.22,5.22,0,0,1-1.46.91,4.33,4.33,0,0,1-1.67.33A4.46,4.46,0,0,1,76.69,45.1Z" style="fill:#fbb034"/><path d="M84.34,31.14h1.44v4l0,2a7.47,7.47,0,0,1,1.56-1.23A3.37,3.37,0,0,1,89,35.49a2.64,2.64,0,0,1,2.25,1A4.66,4.66,0,0,1,92,39.29v6.18H90.5v-6a3.62,3.62,0,0,0-.45-2,1.68,1.68,0,0,0-1.47-.64,2.58,2.58,0,0,0-1.34.37,7.89,7.89,0,0,0-1.44,1.19v7.12H84.34Z" style="fill:#fbb034"/><path d="M95.2,33.37a1,1,0,0,1-.28-.74.94.94,0,0,1,.28-.71,1.1,1.1,0,0,1,1.44,0,.94.94,0,0,1,.28.71,1,1,0,0,1-.28.74,1.07,1.07,0,0,1-1.44,0Zm0,2.37h1.44v9.73H95.18Z" style="fill:#fbb034"/><path d="M98.57,35.74h1.5L102,41.41l.92,2.85H103l.92-2.85,1.93-5.68h1.44l-3.49,9.73h-1.69Z" style="fill:#fbb034"/><path d="M116.55,40.93h-6.72a3.89,3.89,0,0,0,1.05,2.65,3.19,3.19,0,0,0,2.34.94,4.41,4.41,0,0,0,2.47-.78l.54,1a7.27,7.27,0,0,1-1.48.73,5.07,5.07,0,0,1-1.71.27,4.57,4.57,0,0,1-2.34-.61A4.32,4.32,0,0,1,109,43.32a6.25,6.25,0,0,1,0-5.4,4.59,4.59,0,0,1,1.61-1.8,3.92,3.92,0,0,1,2.13-.63,3.47,3.47,0,0,1,2.82,1.21,5.06,5.06,0,0,1,1,3.34A5.5,5.5,0,0,1,116.55,40.93Zm-1.24-1.06a3.7,3.7,0,0,0-.66-2.37,2.24,2.24,0,0,0-1.85-.82,2.68,2.68,0,0,0-1.93.82,3.73,3.73,0,0,0-1,2.37Z" style="fill:#fbb034"/><path d="M10.35,20a1.33,1.33,0,0,1,.82.17,1,1,0,0,1,0,1.52,1.33,1.33,0,0,1-.82.17H1.58c-.79,0-1-.33-1-1V1.52A1.44,1.44,0,0,1,.72.66,1,1,0,0,1,1.61.33,1,1,0,0,1,2.5.66a1.44,1.44,0,0,1,.16.86V20Z" style="fill:#ea8a0a"/><path d="M18.68,9.39h5.74a1.33,1.33,0,0,1,.82.16.87.87,0,0,1,.33.76.87.87,0,0,1-.33.76,1.33,1.33,0,0,1-.82.17H18.68V20h8a1.33,1.33,0,0,1,.82.17,1,1,0,0,1,0,1.52,1.33,1.33,0,0,1-.82.17h-9c-.76,0-1-.33-1-1V1.58c0-.73.26-1,1-1h8a1.33,1.33,0,0,1,.82.16.87.87,0,0,1,.33.76.87.87,0,0,1-.33.76,1.33,1.33,0,0,1-.82.17h-7Z" style="fill:#ea8a0a"/><path d="M42.84,0c6.69,0,10.81,4.55,10.81,11.17S49.43,22.38,42.7,22.38,31.89,17.83,31.89,11.21,36.11,0,42.84,0Zm0,20.57c5.24,0,8.64-3.43,8.64-9.36S48,1.81,42.74,1.81,34.1,5.24,34.1,11.17,37.56,20.57,42.8,20.57Z" style="fill:#ea8a0a"/><path d="M61.62,20.9a1.43,1.43,0,0,1-.17.86,1.28,1.28,0,0,1-1.71,0,1.44,1.44,0,0,1-.16-.86V1.25c0-.59.3-.92,1-.92s1,.33,1.55,1l13.08,17V1.52a1.43,1.43,0,0,1,.17-.86,1.28,1.28,0,0,1,1.71,0,1.44,1.44,0,0,1,.16.86V21.16a.86.86,0,0,1-1,1c-.63,0-1-.33-1.48-1l-13.15-17Z" style="fill:#ea8a0a"/><path d="M103.53,20.43a9.47,9.47,0,0,0,3.69-.76c1.45-.59,2-1.22,2.47-1.22a.94.94,0,0,1,.82,1c0,.43-.3.79-1,1.25a11.19,11.19,0,0,1-6,1.58C98,22.28,92.72,18.75,92.72,11S98,.07,103.37.07a11.65,11.65,0,0,1,5.9,1.48c.82.49,1.25.92,1.25,1.35S110.12,4,109.63,4s-1.09-.66-2.44-1.25a9.81,9.81,0,0,0-3.92-.79c-4.15,0-8.34,2.54-8.34,9C94.93,17.67,99.41,20.43,103.53,20.43Z" style="fill:#ea8a0a"/><path d="M133.29,20.9a1.44,1.44,0,0,1-.16.86,1.37,1.37,0,0,1-1.78,0,1.44,1.44,0,0,1-.16-.86V11.3H118.52V20.9a1.44,1.44,0,0,1-.16.86,1.37,1.37,0,0,1-1.78,0,1.44,1.44,0,0,1-.16-.86V1.52a1.44,1.44,0,0,1,.16-.86,1.37,1.37,0,0,1,1.78,0,1.44,1.44,0,0,1,.16.86V9.46h12.66V1.52a1.44,1.44,0,0,1,.16-.86,1.37,1.37,0,0,1,1.78,0,1.44,1.44,0,0,1,.16.86Z" style="fill:#ea8a0a"/><path d="M151.38,14.07h-8l-2.67,7c-.23.63-.46,1-1.25,1s-.92-.26-.92-.63a2.31,2.31,0,0,1,.2-.76L146.3,1.45c.26-.69.56-1.15,1.25-1.15s1,.46,1.25,1.19l7.32,19.21a2.25,2.25,0,0,1,.17.73c0,.4-.3.66-1,.66s-1-.33-1.29-1Zm-7.32-1.81h6.66l-3.26-8.73Z" style="fill:#ea8a0a"/><path d="M163.6,20.9a1.43,1.43,0,0,1-.17.86,1,1,0,0,1-.86.33,1,1,0,0,1-.89-.33,1.44,1.44,0,0,1-.16-.86V2.11c0-.82,0-1.29,1.29-1.55a16.18,16.18,0,0,1,2.87-.23,11,11,0,0,1,5,1,5.1,5.1,0,0,1,2.87,4.88C173.52,9,172,11.07,169,12l6.36,8.8c.43.59.33,1.25-.79,1.25-.86,0-1.15-.4-1.58-1l-4.25-6c-1.15-1.62-1.71-2.6-1.71-2.6a15.34,15.34,0,0,1-2.11.13,9.75,9.75,0,0,1-1.32-.07Zm0-10.09s.59,0,1.22,0c4.42,0,6.46-1.58,6.46-4.45,0-3.3-2.67-4.28-5.54-4.28a14,14,0,0,0-2.14.17Z" style="fill:#ea8a0a"/><path d="M183,20.9a1.43,1.43,0,0,1-.17.86,1.28,1.28,0,0,1-1.71,0,1.44,1.44,0,0,1-.16-.86V1.25c0-.59.3-.92,1-.92s1,.33,1.55,1l13.08,17V1.52a1.43,1.43,0,0,1,.17-.86,1.28,1.28,0,0,1,1.71,0,1.44,1.44,0,0,1,.16.86V21.16a.86.86,0,0,1-1,1c-.63,0-1-.33-1.48-1L183,4.09Z" style="fill:#ea8a0a"/><path d="M208.32,9.39h5.73a1.33,1.33,0,0,1,.82.16.87.87,0,0,1,.33.76.87.87,0,0,1-.33.76,1.33,1.33,0,0,1-.82.17h-5.73V20h8a1.33,1.33,0,0,1,.82.17,1,1,0,0,1,0,1.52,1.33,1.33,0,0,1-.82.17h-9c-.76,0-1-.33-1-1V1.58c0-.73.26-1,1-1h8a1.33,1.33,0,0,1,.82.16.88.88,0,0,1,.33.76.87.87,0,0,1-.33.76,1.33,1.33,0,0,1-.82.17h-7Z" style="fill:#ea8a0a"/><path d="M235.6,1.32a1.58,1.58,0,0,1,1.52-1c.63,0,.89.23.89.59a1.74,1.74,0,0,1-.36.89l-7.32,11.67V20.9a1.43,1.43,0,0,1-.17.86,1.37,1.37,0,0,1-1.78,0,1.44,1.44,0,0,1-.16-.86V13.48L221.17,1.85a2.15,2.15,0,0,1-.4-.89c0-.4.36-.63,1-.63a1.58,1.58,0,0,1,1.55,1l6,10.18Z" style="fill:#ea8a0a"/><path d="M237,27.48H.8a.8.8,0,0,1,0-1.59H237a.8.8,0,0,1,0,1.59Z" style="fill:#ea8a0a"/></g></g></svg>