<svg xmlns="http://www.w3.org/2000/svg" viewBox="0 0 44.6 44.6"><title>PDF</title><g id="Layer_2" data-name="Layer 2"><g id="Main"><circle cx="22.3" cy="22.3" r="22.3" style="fill:#bf311a"/><path d="M37.22,23a2.14,2.14,0,0,0-1-1,9.39,9.39,0,0,0-4.27-.74,25.55,25.55,0,0,0-4,.38l-.61.12a24.42,24.42,0,0,1-2.47-3.38c-.6-1-1.15-2-1.65-3,.35-1.2.68-2.43.93-3.72a18.69,18.69,0,0,0,.32-2.08,8.16,8.16,0,0,0,.07-1.08l0-.26V8L24.55,8l-.05,0V7.79c0-.19,0-.39-.08-.58A2.87,2.87,0,0,0,22.91,5a1.84,1.84,0,0,0-1.55,0,2.45,2.45,0,0,0-1,1,4.34,4.34,0,0,0-.5,2.42,9.94,9.94,0,0,0,.45,2.23,28.61,28.61,0,0,0,1.45,3.6l-.18.56a57.43,57.43,0,0,1-2.68,6.49Q18,23.28,17.1,24.9a29.54,29.54,0,0,0-6,3,7.15,7.15,0,0,0-1.42,1.27,2.4,2.4,0,0,0-.62,1.66,2.06,2.06,0,0,0,.48,1.16l.18.2,0,.05,0,0a1.71,1.71,0,0,0,.39.28,2.38,2.38,0,0,0,1.18.27,5.63,5.63,0,0,0,3.25-1.33,8.09,8.09,0,0,0,1.63-1.71c.51-.63,1-1.35,1.5-2.12s1.07-1.77,1.6-2.76c.61-.25,1.24-.49,1.9-.73a29.28,29.28,0,0,1,6-1.61,10.84,10.84,0,0,0,1.4,1.19,13.77,13.77,0,0,0,2,1.07,15.68,15.68,0,0,0,2.06.8,5.6,5.6,0,0,0,2.27.28,2.83,2.83,0,0,0,2.12-1.41,2.13,2.13,0,0,0,.21-.6A1.63,1.63,0,0,0,37.22,23ZM21.32,10.42c-.37-1.34-.55-2.78.06-3.73.3-.46.73-.62,1-.46A1.65,1.65,0,0,1,23,7.46c0,.15,0,.29,0,.44V8h0v.32a6.32,6.32,0,0,1-.08,1,17.64,17.64,0,0,1-.36,1.89c-.13.58-.29,1.14-.45,1.7C21.86,12.09,21.56,11.26,21.32,10.42Zm-5.2,16.15c-.48.73-.92,1.42-1.37,2A6.58,6.58,0,0,1,13.49,30a4.22,4.22,0,0,1-2.14,1.06c-.43,0-.38-.08-.41-.07l0,0s-.27-.2-.32-.4a.89.89,0,0,1,.19-.69,4.84,4.84,0,0,1,1.06-1.1,22.73,22.73,0,0,1,3.87-2.36l.6-.29ZM21,23.44l-1.12.4c.27-.53.54-1.08.8-1.65a60.34,60.34,0,0,0,2.16-5.75c.43.77.88,1.52,1.37,2.26a26.08,26.08,0,0,0,2.4,3.1c-.79.16-1.56.34-2.3.55C23.16,22.71,22.07,23.08,21,23.44Zm15,.14c0,.2,0,.28-.07.41a1.09,1.09,0,0,1-.31.69,1.7,1.7,0,0,1-.76.36,7,7,0,0,1-4-.77,10.43,10.43,0,0,1-1.86-1,9.44,9.44,0,0,1-1-.84h0a23.77,23.77,0,0,1,3.81-.13,9.46,9.46,0,0,1,3.66.77.87.87,0,0,1,.41.4S36,23.56,36,23.58Z" style="fill:#fff"/><path d="M16,35.27h1.73a2.55,2.55,0,0,1,1.49.39,1.42,1.42,0,0,1,.55,1.26,1.53,1.53,0,0,1-.56,1.29,2.28,2.28,0,0,1-1.45.44h-.67v1.81H16Zm1.69,2.51q1,0,1-.87a.68.68,0,0,0-.26-.6,1.38,1.38,0,0,0-.79-.18h-.57v1.64Z" style="fill:#fff"/><path d="M20.7,35.27h1.44a2.65,2.65,0,0,1,1.9.64,2.54,2.54,0,0,1,.68,1.93,2.63,2.63,0,0,1-.67,2,2.51,2.51,0,0,1-1.85.66H20.7Zm1.38,4.3q1.52,0,1.53-1.73a1.78,1.78,0,0,0-.39-1.29,1.52,1.52,0,0,0-1.13-.4h-.29v3.42Z" style="fill:#fff"/><path d="M25.72,35.27h3.22v.91H26.8v1.29h1.83v.91H26.8v2.07H25.72Z" style="fill:#fff"/></g></g></svg>