<svg xmlns="http://www.w3.org/2000/svg" viewBox="0 0 22.13 22.13"><title>X</title><g id="Layer_2" data-name="Layer 2"><g id="Main"><g id="_Group_" data-name="&lt;Group&gt;"><path d="M12.68,11,16,7.77a1.18,1.18,0,1,0-1.67-1.67L11,9.37,7.75,6.1A1.18,1.18,0,0,0,6.08,7.77L9.35,11,6.07,14.31A1.18,1.18,0,0,0,7.74,16L11,12.71,14.28,16A1.18,1.18,0,1,0,16,14.32Z" style="fill:#333"/><g id="_Group_2" data-name="&lt;Group&gt;"><path id="_Compound_Path_" data-name="&lt;Compound Path&gt;" d="M11.06,22.13A11.06,11.06,0,1,1,22.13,11.06,11.08,11.08,0,0,1,11.06,22.13Zm0-19.75a8.68,8.68,0,1,0,8.68,8.68A8.7,8.7,0,0,0,11.06,2.38Z" style="fill:#333"/></g></g></g></g></svg>