<?xml version="1.0" encoding="utf-8"?>
<svg display="none" xmlns="http://www.w3.org/2000/svg">
<symbol id="bh-logo" viewBox="0 0 139.24 53.26"><defs><style>.cls-1{fill:#ffa400;}.cls-2{fill:#00bfd6;}.cls-3{fill:#b3282d;}.cls-4{fill:#250671;}.cls-5{fill:#c7ecf2;}.cls-6{fill:#444545;}</style></defs><title>bh-logo</title><path class="cls-1" d="M20.86,49.21l2.36,4.06,2.3-4.06a4.68,4.68,0,0,0-4.66,0Z"/><path class="cls-2" d="M4.69,13.14H0l2.33,4A4.66,4.66,0,0,0,4,15.49a4.73,4.73,0,0,0,.65-2.35Z"/><polygon class="cls-3" points="8.72 36.55 6.07 37.26 5.53 40.31 9.25 40.31 8.72 36.55 8.72 36.55"/><polygon class="cls-3" points="3.51 19.21 7.52 19.58 6.98 25.22 3.51 19.21 3.51 19.21"/><polygon class="cls-1" points="2.19 36.56 0.04 40.31 4.34 40.31 4.86 37.38 2.19 36.56 2.19 36.56"/><path class="cls-3" d="M20.15,5s4.6-1,5.14-1.1c0,0-.77-1.41-2.25-3.94L20.15,5Z"/><polygon class="cls-4" points="8.47 27.98 7.76 26.82 5.41 30.93 6.92 31.79 8.47 27.98 8.47 27.98"/><polygon class="cls-4" points="38.99 20.75 40.31 16.61 43.69 17.38 41.47 21.27 38.99 20.75 38.99 20.75"/><polygon class="cls-3" points="18.72 45.48 22.56 44.84 20.52 41.49 17.68 43.67 18.72 45.48 18.72 45.48"/><path class="cls-1" d="M17.23,42.88l3.2-2.49H15.79l1.44,2.49Z"/><polygon class="cls-3" points="36.44 22.8 38.51 26.32 40.89 22.16 38.59 21.65 36.44 22.8 36.44 22.8"/><polygon class="cls-2" points="23.74 44.43 24.4 47.26 26.2 48 27.94 44.94 23.74 44.43 23.74 44.43"/><polygon class="cls-3" points="43.97 36.18 46.38 40.34 42.66 40.34 43.97 36.18 43.97 36.18"/><polygon class="cls-2" points="22.95 5.64 19.41 6.4 17.3 10.12 20.98 10.04 22.95 5.64 22.95 5.64"/><path class="cls-2" d="M40.54,35.79l2.88-.48-1.7-2.9-4.53-.15,3.35,3.53Z"/><polygon class="cls-1" points="26.95 11.36 28.76 9.81 26.09 5.16 24.46 5.5 23.32 7.98 26.95 11.36 26.95 11.36"/><polygon class="cls-3" points="36.45 16.42 39.15 16.46 40.2 13.18 37.45 13.17 36.45 16.42 36.45 16.42"/><polygon class="cls-5" points="36.47 37.66 36.76 33.31 40.14 36.9 38.01 38.05 36.47 37.66 36.47 37.66"/><polygon class="cls-2" points="17.82 25.59 15.29 23.89 12.82 27.86 16.08 29.64 17.82 25.59 17.82 25.59"/><path class="cls-2" d="M17.82,37.28l3.06-3.54-1.81-1.13s-2.28,1.31-3.38,2l2.14,2.64Z"/><path class="cls-1" d="M14.35,34.3s3.35-2,3.8-2.29c0,0-2.78-1.61-3.24-1.84l-.55,4.13Z"/><polygon class="cls-3" points="11.07 21.08 12.91 25.99 10.07 28.44 8.41 25.65 11.07 21.08 11.07 21.08"/><polygon class="cls-5" points="17.83 19.82 20.2 22.17 22.46 21.45 21.52 17.27 17.83 19.82 17.83 19.82"/><polygon class="cls-2" points="26.15 21.63 24.81 14.19 22.07 14.81 23.23 19.66 26.15 21.63 26.15 21.63"/><polygon class="cls-5" points="31.92 20.46 26.92 20.4 28.49 24.66 31.92 20.46 31.92 20.46"/><polygon class="cls-4" points="35.45 37.67 32.72 36.7 35.25 32.24 35.45 37.67 35.45 37.67"/><polygon class="cls-1" points="35.56 23.36 37.84 27.32 34.28 26.82 35.56 23.36 35.56 23.36"/><polygon class="cls-5" points="36.27 28.36 30.05 26.84 31.6 29.98 34.72 31.1 36.27 28.36 36.27 28.36"/><polygon class="cls-4" points="13.57 24.75 16.5 19.93 14.48 17.92 12.16 20.9 13.57 24.75 13.57 24.75"/><polygon class="cls-2" points="11.61 13.14 12.92 13.14 14.74 15.77 11.78 19.6 11.61 13.14 11.61 13.14"/><polygon class="cls-2" points="14.58 40.31 10.2 40.31 9.73 37.16 14.58 40.31 14.58 40.31"/><polygon class="cls-3" points="14.71 14.61 16.05 15.73 19.6 11.21 16.66 11.23 14.71 14.61 14.71 14.61"/><polygon class="cls-3" points="11.01 32.26 9.91 35.98 12.09 37.37 13.66 33.85 11.01 32.26 11.01 32.26"/><path class="cls-5" d="M9.07,35.24s1.21-4.06,1.21-4.08L9.08,29,6.27,36l2.8-.76Z"/><path class="cls-2" d="M20.17,48l3-.7c-.17-.72-.34-1.46-.34-1.46l-3.59.59L20.17,48Z"/><path class="cls-5" d="M25.72,39.4l-2.8-.11a5.54,5.54,0,0,1-1.23,2.29l2,2a5.33,5.33,0,0,0,2-4.21Z"/><path class="cls-1" d="M39.48,40.34h2.07l.89-3.66L38.76,39l.71,1.36Z"/><path class="cls-3" d="M41.2,31.42l-1.84-3.17-2.09.62s-1.14,2-1.3,2.3l5.22.25Z"/><polygon class="cls-2" points="38.28 40.34 37.57 38.99 33.24 37.88 31.51 40.31 38.28 40.34 38.28 40.34"/><polygon class="cls-3" points="32.02 37.92 28.74 35.12 26.3 38.88 30.52 40.48 32.02 37.92 32.02 37.92"/><path class="cls-1" d="M23.38,38.37,26.14,37l1.36-2.5-4.94-.83.83,4.66Z"/><path class="cls-3" d="M21.13,34.91l-2.81,3.28,2.84,1.61a3.48,3.48,0,0,0,1-2.65s0-.05,0-.08a3.28,3.28,0,0,0-1.07-2.16Z"/><path class="cls-2" d="M5.21,36.27l1.41-3.42-1.74-1s-2.1,3.63-2.09,3.66l2.43.73Z"/><path class="cls-4" d="M25.61,43.66l2.86.39c.06-.1,1.53-2.71,1.56-2.76l-3-1.13a5.51,5.51,0,0,1-1.4,3.5Z"/><polygon class="cls-4" points="14.79 35.12 18.25 39.36 15.14 39.35 12.96 37.93 14.79 35.12 14.79 35.12"/><path class="cls-4" d="M11.53,31.21a2.92,2.92,0,0,0,2.06,1.39L14,29.67l-1.87-1-.66-.36a2.93,2.93,0,0,0,0,2.94Z"/><polygon class="cls-5" points="36.39 21.09 37.69 21.35 38.95 17.59 34.37 17.54 36.39 21.09 36.39 21.09"/><polygon class="cls-4" points="25.67 26.21 27.54 25.23 27 23.55 24.02 21.55 21.33 23.23 25.67 26.21 25.67 26.21"/><polygon class="cls-2" points="18.98 26.13 22.16 28.24 24.83 26.73 21.65 24.68 18.98 26.13 18.98 26.13"/><path class="cls-1" d="M24.13,28.35a4.65,4.65,0,0,0,5.69,1.28l-1.72-3.48-4,2.2Z"/><polygon class="cls-5" points="24.8 13.07 21.28 13.86 20.04 12.73 22.82 9.05 25.98 12.05 24.8 13.07 24.8 13.07"/><path class="cls-4" d="M29,25.53,32,22.34a3.87,3.87,0,0,1,1.06,4.2l-4.14-1Z"/><path class="cls-2" d="M33.58,22.75A4.6,4.6,0,0,1,34,23.8l1.63-2.05-2-3.37-1,3.26a4.53,4.53,0,0,1,.91,1.12Z"/><path class="cls-2" d="M28.51,16.44,26,15.77l.62,3.52h.86a4.56,4.56,0,0,1,1-2.85Z"/><polygon class="cls-2" points="46.09 13.19 44.27 16.34 40.72 15.52 41.43 13.19 46.09 13.19 46.09 13.19"/><polygon class="cls-3" points="20.69 23.96 18.81 25.01 15.92 23.09 17.33 20.71 20.69 23.96 20.69 23.96"/><polygon class="cls-1" points="19.09 13.4 15.78 17.74 17.21 19.06 21.24 16.24 21.06 15.28 19.09 13.4 19.09 13.4"/><polygon class="cls-2" points="34.3 31.99 32.84 34.55 30.45 30.63 34.3 31.99 34.3 31.99"/><path class="cls-5" d="M31.58,36.18a4.65,4.65,0,0,0,.1-.9,4.54,4.54,0,0,0-2-3.78l-.43,2.72,2.31,2Z"/><polyline class="cls-5" points="18.45 26.96 17.05 30.19 21.26 32.59 23.95 30.21"/><polygon class="cls-4" points="10.82 15.5 10.72 13.14 6.07 13.14 8.95 17.05 10.82 15.5 10.82 15.5"/><polygon class="cls-1" points="3.07 18.09 7.21 18.45 8.06 17.75 5.94 14.63 3.07 18.09 3.07 18.09"/><polygon class="cls-5" points="8.5 23.7 10.85 19.64 10.78 16.88 8.64 18.68 8.22 23.28 8.5 23.7 8.5 23.7"/><polygon class="cls-3" points="28.35 33.67 28.82 31.06 24.87 30.62 22.74 32.75 28.35 33.67 28.35 33.67"/><polygon class="cls-1" points="31.72 13.17 33.39 16.39 35.48 16.41 36.49 13.17 31.72 13.17 31.72 13.17"/><path class="cls-3" d="M28.47,19.46l3.86,0L33,17.33,32,15.6a3.87,3.87,0,0,0-3.51,3.86Z"/><path class="cls-4" d="M25.9,13.74l.18,1.09,3.37.88a4.62,4.62,0,0,1,.58-.4,4.52,4.52,0,0,1,1.53-.55l-2.18-3.89s-1.69,1.37-3.48,2.87Z"/><path class="cls-6" d="M53.12,12.61h3.21c1.3,0,2.18.42,2.18,1.69a1.5,1.5,0,0,1-.93,1.43,1.67,1.67,0,0,1,1.25,1.73c0,1.39-1.18,2-2.41,2H53.12Zm1.5,2.76h1.52c.53,0,.92-.24.92-.81s-.5-.78-1-.78H54.62Zm0,2.9h1.61c.59,0,1.11-.19,1.11-.9s-.44-1-1.08-1H54.62Z"/><path class="cls-6" d="M59.85,12.61H65v1.26H61.35v1.46h3.31V16.5H61.35v1.67H65v1.26H59.85Z"/><path class="cls-6" d="M66,12.61h1.5v6.83H66Z"/><path class="cls-6" d="M70.38,13.87h-2V12.61h5.6v1.26h-2v5.57h-1.5Z"/><path class="cls-6" d="M77.37,12.61h1.5v2.62h2.76V12.61h1.5v6.83h-1.5V16.49H78.88v2.95h-1.5Z"/><path class="cls-6" d="M86.33,12.61h1.54l2.55,6.83H88.86l-.52-1.52H85.79l-.54,1.52H83.73Zm-.14,4.19H88l-.86-2.51h0Z"/><path class="cls-6" d="M91.82,13.87h-2V12.61h5.6v1.26h-2v5.57h-1.5Z"/><path class="cls-6" d="M96.15,12.61H101v1.26h-3.3v1.58h2.86v1.17H97.65v2.82h-1.5Z"/><path class="cls-6" d="M107.62,16.86c0,1.85-1.09,2.75-2.92,2.75s-2.91-.89-2.91-2.75V12.61h1.5v4.25c0,.75.19,1.48,1.41,1.48s1.42-.47,1.42-1.48V12.61h1.5Z"/><path class="cls-6" d="M110.42,13.87h-2V12.61H114v1.26h-2v5.57h-1.5Z"/><path class="cls-6" d="M115.78,17.17c0,.91.71,1.26,1.51,1.26.53,0,1.33-.15,1.33-.85s-1-.86-2-1.13-2-.66-2-1.94,1.32-2.07,2.55-2.07c1.43,0,2.74.62,2.74,2.2h-1.45c0-.82-.63-1-1.35-1-.48,0-1,.2-1,.77s.32.59,2,1c.5.12,2,.44,2,2,0,1.25-1,2.19-2.84,2.19-1.51,0-2.93-.75-2.91-2.43Z"/><path class="cls-6" d="M124,12.45a3.31,3.31,0,0,1,3.36,3.61,3.36,3.36,0,1,1-6.72,0A3.31,3.31,0,0,1,124,12.45Zm0,5.89c1.35,0,1.86-1.15,1.86-2.29s-.51-2.34-1.86-2.34-1.86,1.15-1.86,2.34S122.67,18.34,124,18.34Z"/><path class="cls-6" d="M129.91,13.87h-2V12.61h5.6v1.26h-2v5.57h-1.5Z"/><path class="cls-6" d="M54.75,24.85H52.48v-.77h5.46v.77H55.66v6.06h-.91Z"/><path class="cls-6" d="M58.56,24.09h.81V26.7h0A1.67,1.67,0,0,1,61,25.86c1.3,0,1.7.75,1.7,1.81v3.25h-.81V27.57a.93.93,0,0,0-1-1,1.39,1.39,0,0,0-1.46,1.55v2.79h-.81Z"/><path class="cls-6" d="M68.1,29.35A2,2,0,0,1,66,31c-1.58,0-2.32-1.09-2.37-2.6a2.38,2.38,0,0,1,2.32-2.57c1.75,0,2.29,1.64,2.24,2.83h-3.7A1.46,1.46,0,0,0,66,30.31a1.19,1.19,0,0,0,1.28-1ZM67.31,28a1.42,1.42,0,0,0-1.43-1.4A1.41,1.41,0,0,0,64.47,28Z"/><path class="cls-6" d="M71.83,24.09h1.24l2.15,5.74,2.16-5.74h1.24v6.83h-.86V25.23h0l-2.13,5.68h-.77l-2.13-5.68h0v5.68h-.86Z"/><path class="cls-6" d="M84.1,30.92h-.77v-.78h0a1.72,1.72,0,0,1-1.61.9c-1.3,0-1.7-.75-1.7-1.81V26h.81v3.35a.93.93,0,0,0,1,1,1.39,1.39,0,0,0,1.46-1.55V26h.81Z"/><path class="cls-6" d="M85.82,29.36c0,.73.66,1,1.33,1,.51,0,1.2-.11,1.2-.74s-.8-.74-1.62-.92-1.62-.45-1.62-1.4,1-1.41,1.85-1.41c1.09,0,2,.34,2,1.55h-.81c-.06-.63-.61-.83-1.15-.83s-1.05.13-1.05.63.86.68,1.62.86,1.62.45,1.62,1.41c0,1.18-1.1,1.56-2.11,1.56s-2-.45-2.09-1.67Z"/><path class="cls-6" d="M94.32,29.35A2,2,0,0,1,92.21,31c-1.58,0-2.32-1.09-2.37-2.6a2.38,2.38,0,0,1,2.32-2.57c1.75,0,2.29,1.64,2.24,2.83H90.7a1.46,1.46,0,0,0,1.54,1.63,1.19,1.19,0,0,0,1.28-1ZM93.54,28a1.42,1.42,0,0,0-1.43-1.4A1.41,1.41,0,0,0,90.7,28Z"/><path class="cls-6" d="M99.34,30.92h-.77v-.78h0a1.72,1.72,0,0,1-1.61.9c-1.3,0-1.7-.75-1.7-1.81V26h.81v3.35a.93.93,0,0,0,1,1,1.39,1.39,0,0,0,1.46-1.55V26h.81Z"/><path class="cls-6" d="M100.56,26h.77v.73h0a1.82,1.82,0,0,1,1.6-.84,1.31,1.31,0,0,1,1.36.84,1.83,1.83,0,0,1,1.55-.84c1,0,1.65.41,1.65,1.44v3.63h-.81V27.67c0-.61-.16-1.1-1-1.1a1.2,1.2,0,0,0-1.29,1.26v3.08h-.81V27.67c0-.64-.2-1.1-.93-1.1a1.33,1.33,0,0,0-1.32,1.26v3.08h-.81Z"/><path class="cls-6" d="M114.4,23.92a3.28,3.28,0,0,1,3.27,3.58,3.28,3.28,0,1,1-6.54,0A3.28,3.28,0,0,1,114.4,23.92Zm0,6.39c1.66,0,2.36-1.43,2.36-2.81s-.7-2.81-2.36-2.81S112,26.12,112,27.5,112.74,30.31,114.4,30.31Z"/><path class="cls-6" d="M119,26.69h-.83V26H119v-.74c0-.8.48-1.22,1.37-1.22a2,2,0,0,1,.53.08v.71a1.54,1.54,0,0,0-.46-.07c-.39,0-.62.12-.62.55V26h1v.72h-1v4.23H119Z"/><path class="cls-6" d="M125.82,24.85h-2.28v-.77H129v.77h-2.28v6.06h-.91Z"/><path class="cls-6" d="M129.63,24.09h.81V26.7h0a1.67,1.67,0,0,1,1.56-.84c1.3,0,1.7.75,1.7,1.81v3.25h-.81V27.57a.93.93,0,0,0-1-1,1.39,1.39,0,0,0-1.46,1.55v2.79h-.81Z"/><path class="cls-6" d="M139.16,29.35A2,2,0,0,1,137,31c-1.58,0-2.32-1.09-2.37-2.6A2.38,2.38,0,0,1,137,25.86c1.75,0,2.29,1.64,2.24,2.83h-3.7a1.46,1.46,0,0,0,1.54,1.63,1.19,1.19,0,0,0,1.28-1ZM138.38,28a1.42,1.42,0,0,0-1.43-1.4,1.41,1.41,0,0,0-1.42,1.4Z"/><path class="cls-6" d="M56.67,39a1.77,1.77,0,0,1-2,1.87,1.8,1.8,0,0,1-2-2v-.42h.91v.29c0,.79.21,1.36,1.1,1.36s1.09-.48,1.09-1.23v-5h.91Z"/><path class="cls-6" d="M62.25,39.09a2,2,0,0,1-2.11,1.68c-1.58,0-2.32-1.09-2.37-2.6a2.38,2.38,0,0,1,2.32-2.57c1.75,0,2.29,1.64,2.24,2.83h-3.7a1.46,1.46,0,0,0,1.54,1.63,1.19,1.19,0,0,0,1.28-1Zm-.78-1.38A1.42,1.42,0,0,0,60,36.32a1.41,1.41,0,0,0-1.42,1.4Z"/><path class="cls-6" d="M68.07,40.66h-.86l-1-3.93h0l-1,3.93h-.88l-1.59-4.95h.9l1.12,4h0l1-4h.89l1,4h0l1.11-4h.84Z"/><path class="cls-6" d="M71.28,34.83h-.81v-1h.81Zm-.81.89h.81v4.95h-.81Z"/><path class="cls-6" d="M73,39.1c0,.73.66,1,1.33,1,.51,0,1.2-.12,1.2-.74s-.8-.74-1.62-.92S72.33,38,72.33,37s1-1.41,1.85-1.41c1.09,0,2,.34,2,1.55h-.81c-.06-.63-.61-.83-1.15-.83s-1.05.13-1.05.63.86.68,1.62.86,1.62.45,1.62,1.41c0,1.18-1.1,1.56-2.11,1.56s-2-.45-2.09-1.67Z"/><path class="cls-6" d="M77.33,33.83h.81v2.61h0a1.67,1.67,0,0,1,1.56-.84c1.3,0,1.7.75,1.7,1.81v3.25h-.81V37.31a.93.93,0,0,0-1-1,1.39,1.39,0,0,0-1.46,1.55v2.79h-.81Z"/><path class="cls-6" d="M85.44,33.83h3a2,2,0,1,1,0,4H86.35v2.79h-.91Zm.91,3.27h1.78c1,0,1.49-.44,1.49-1.25s-.47-1.25-1.49-1.25H86.35Z"/><path class="cls-6" d="M95.72,39.09a2,2,0,0,1-2.11,1.68c-1.58,0-2.32-1.09-2.37-2.6a2.38,2.38,0,0,1,2.32-2.57c1.75,0,2.29,1.64,2.24,2.83h-3.7a1.46,1.46,0,0,0,1.54,1.63,1.19,1.19,0,0,0,1.28-1Zm-.78-1.38a1.42,1.42,0,0,0-1.43-1.4,1.41,1.41,0,0,0-1.42,1.4Z"/><path class="cls-6" d="M98.77,35.6a2.35,2.35,0,0,1,2.4,2.59,2.41,2.41,0,1,1-4.8,0A2.35,2.35,0,0,1,98.77,35.6Zm0,4.46c.85,0,1.54-.67,1.54-1.87s-.69-1.88-1.54-1.88-1.54.67-1.54,1.88S97.92,40.06,98.77,40.06Z"/><path class="cls-6" d="M102.16,35.72H103v.67h0a1.66,1.66,0,0,1,1.58-.78,2.32,2.32,0,0,1,2.28,2.6,2.28,2.28,0,0,1-2.26,2.57A1.89,1.89,0,0,1,103,40h0v2.55h-.81Zm2.3.6c-1.09,0-1.51.94-1.51,1.87s.44,1.88,1.56,1.88,1.48-.95,1.48-1.91S105.5,36.32,104.45,36.32Z"/><path class="cls-6" d="M107.85,33.83h.81v6.83h-.81Z"/><path class="cls-6" d="M114.14,39.09A2,2,0,0,1,112,40.78c-1.58,0-2.32-1.09-2.37-2.6A2.38,2.38,0,0,1,112,35.6c1.75,0,2.29,1.64,2.24,2.83h-3.7a1.46,1.46,0,0,0,1.54,1.63,1.19,1.19,0,0,0,1.28-1Zm-.78-1.38a1.42,1.42,0,0,0-1.43-1.4,1.41,1.41,0,0,0-1.42,1.4Z"/>
</symbol>
<symbol id="logo" viewBox="0 0 238.01 50"><defs><style>.cls-1{fill:#fbb034;}.cls-2{fill:#ea8a0a;}</style></defs><title>Logo</title><g id="Layer_2" data-name="Layer 2"><g id="Main"><path class="cls-1" d="M.6,32.28H3.83A5.93,5.93,0,0,1,8.41,34,6.87,6.87,0,0,1,10,38.83a7.06,7.06,0,0,1-1.58,4.89,5.76,5.76,0,0,1-4.52,1.76H.6Zm3.11,12a4.4,4.4,0,0,0,3.56-1.41,6,6,0,0,0,1.19-4,5.85,5.85,0,0,0-1.19-3.93,4.45,4.45,0,0,0-3.56-1.38H2.08V44.24Z"/><path class="cls-1" d="M12.78,33.37a1,1,0,0,1-.28-.74.94.94,0,0,1,.28-.71,1.1,1.1,0,0,1,1.44,0,.94.94,0,0,1,.28.71,1,1,0,0,1-.28.74,1.07,1.07,0,0,1-1.44,0Zm0,2.37H14.2v9.73H12.76Z"/><path class="cls-1" d="M17.94,49.3a2.18,2.18,0,0,1-1.09-1.93,2.21,2.21,0,0,1,.37-1.2,3.64,3.64,0,0,1,1.05-1V45a1.91,1.91,0,0,1-.62-.64,1.79,1.79,0,0,1-.24-.94,1.84,1.84,0,0,1,.31-1,2.76,2.76,0,0,1,.75-.77v-.08a3.48,3.48,0,0,1-.88-1.1,3.16,3.16,0,0,1-.36-1.5,3.43,3.43,0,0,1,.48-1.82A3.29,3.29,0,0,1,19,35.93a3.83,3.83,0,0,1,1.81-.43,4,4,0,0,1,1.34.24h3.37v1.14H23.47a2.74,2.74,0,0,1,.62.92A3,3,0,0,1,24.33,39a3.39,3.39,0,0,1-.46,1.78A3.15,3.15,0,0,1,22.61,42a3.78,3.78,0,0,1-1.79.42A3.27,3.27,0,0,1,19.34,42a2.24,2.24,0,0,0-.49.53,1.24,1.24,0,0,0-.17.67,1,1,0,0,0,.39.81,2.3,2.3,0,0,0,1.33.29h1.95a4.54,4.54,0,0,1,2.53.56,2,2,0,0,1,.82,1.75,2.65,2.65,0,0,1-.6,1.66,4.12,4.12,0,0,1-1.71,1.23,6.51,6.51,0,0,1-2.53.46A5.34,5.34,0,0,1,17.94,49.3Zm4.77-.63a2.72,2.72,0,0,0,1.13-.78,1.61,1.61,0,0,0,.4-1,1,1,0,0,0-.5-1,3.12,3.12,0,0,0-1.52-.29H20.44a5,5,0,0,1-1.24-.16,2.12,2.12,0,0,0-1.06,1.75,1.47,1.47,0,0,0,.78,1.3,4.08,4.08,0,0,0,2.15.48A4.46,4.46,0,0,0,22.72,48.67Zm-.36-8a2.72,2.72,0,0,0,0-3.47,2,2,0,0,0-1.54-.65,2.08,2.08,0,0,0-1.55.65A2.39,2.39,0,0,0,18.64,39a2.43,2.43,0,0,0,.63,1.74,2,2,0,0,0,1.55.67A2,2,0,0,0,22.36,40.7Z"/><path class="cls-1" d="M27.67,33.37a1,1,0,0,1-.28-.74.94.94,0,0,1,.28-.71,1.1,1.1,0,0,1,1.44,0,.94.94,0,0,1,.28.71,1,1,0,0,1-.28.74,1.07,1.07,0,0,1-1.44,0Zm0,2.37h1.44v9.73H27.65Z"/><path class="cls-1" d="M33.38,44.88a3.83,3.83,0,0,1-.62-2.35v-5.6H31.3v-1.1l1.52-.1L33,33h1.22v2.75h2.67v1.2H34.23v5.64A2.44,2.44,0,0,0,34.58,44a1.38,1.38,0,0,0,1.19.48,3.44,3.44,0,0,0,1.12-.26l.3,1.1a5.83,5.83,0,0,1-1.75.36A2.42,2.42,0,0,1,33.38,44.88Z"/><path class="cls-1" d="M38.88,45a2.58,2.58,0,0,1-.8-2,2.69,2.69,0,0,1,1.44-2.44,12.06,12.06,0,0,1,4.61-1.19,3.41,3.41,0,0,0-.47-1.88,1.77,1.77,0,0,0-1.62-.73,5.32,5.32,0,0,0-2.95,1.06l-.58-1a6.8,6.8,0,0,1,3.77-1.28,2.93,2.93,0,0,1,2.49,1.05,4.68,4.68,0,0,1,.8,2.9v6h-1.2l-.12-1.18H44.2a5.26,5.26,0,0,1-3.27,1.42A2.94,2.94,0,0,1,38.88,45Zm3.8-.79a6.64,6.64,0,0,0,1.45-1V40.31a9.78,9.78,0,0,0-3.56.92,1.86,1.86,0,0,0-1.05,1.65,1.5,1.5,0,0,0,.5,1.23,2,2,0,0,0,1.28.41A3.08,3.08,0,0,0,42.68,44.19Z"/><path class="cls-1" d="M49.15,45.2a2.52,2.52,0,0,1-.38-1.51V31.14h1.44V43.8a.83.83,0,0,0,.13.51.4.4,0,0,0,.33.17,1.82,1.82,0,0,0,.36,0l.2,1.12a2.55,2.55,0,0,1-.88.14A1.4,1.4,0,0,1,49.15,45.2Z"/><path class="cls-1" d="M63.94,41.31H59l-1.34,4.15h-1.5l4.51-13.18h1.65l4.49,13.18H65.26Zm-.38-1.18L62.88,38q-.8-2.51-1.36-4.47h-.08Q60.77,36,60.09,38l-.68,2.13Z"/><path class="cls-1" d="M68.61,35.74h1.2l.12,1.79H70A4.4,4.4,0,0,1,71.22,36a2.53,2.53,0,0,1,1.54-.54,2.31,2.31,0,0,1,1,.2L73.49,37a3.2,3.2,0,0,0-.92-.16,2.11,2.11,0,0,0-1.35.56,4.39,4.39,0,0,0-1.15,1.75v6.34H68.61Z"/><path class="cls-1" d="M76.69,45.1a4.26,4.26,0,0,1-1.63-1.76,5.87,5.87,0,0,1-.59-2.73,5.63,5.63,0,0,1,.63-2.73,4.43,4.43,0,0,1,1.7-1.78,4.55,4.55,0,0,1,2.31-.61,4,4,0,0,1,2.83,1.16l-.76,1a4,4,0,0,0-1-.67,2.38,2.38,0,0,0-1-.23,2.82,2.82,0,0,0-1.62.49,3.31,3.31,0,0,0-1.13,1.37,4.75,4.75,0,0,0-.41,2,4.32,4.32,0,0,0,.86,2.81,2.78,2.78,0,0,0,2.27,1.06,3.47,3.47,0,0,0,2.37-1l.64,1a5.22,5.22,0,0,1-1.46.91,4.33,4.33,0,0,1-1.67.33A4.46,4.46,0,0,1,76.69,45.1Z"/><path class="cls-1" d="M84.34,31.14h1.44v4l0,2a7.47,7.47,0,0,1,1.56-1.23A3.37,3.37,0,0,1,89,35.49a2.64,2.64,0,0,1,2.25,1A4.66,4.66,0,0,1,92,39.29v6.18H90.5v-6a3.62,3.62,0,0,0-.45-2,1.68,1.68,0,0,0-1.47-.64,2.58,2.58,0,0,0-1.34.37,7.89,7.89,0,0,0-1.44,1.19v7.12H84.34Z"/><path class="cls-1" d="M95.2,33.37a1,1,0,0,1-.28-.74.94.94,0,0,1,.28-.71,1.1,1.1,0,0,1,1.44,0,.94.94,0,0,1,.28.71,1,1,0,0,1-.28.74,1.07,1.07,0,0,1-1.44,0Zm0,2.37h1.44v9.73H95.18Z"/><path class="cls-1" d="M98.57,35.74h1.5L102,41.41l.92,2.85H103l.92-2.85,1.93-5.68h1.44l-3.49,9.73h-1.69Z"/><path class="cls-1" d="M116.55,40.93h-6.72a3.89,3.89,0,0,0,1.05,2.65,3.19,3.19,0,0,0,2.34.94,4.41,4.41,0,0,0,2.47-.78l.54,1a7.27,7.27,0,0,1-1.48.73,5.07,5.07,0,0,1-1.71.27,4.57,4.57,0,0,1-2.34-.61A4.32,4.32,0,0,1,109,43.32a6.25,6.25,0,0,1,0-5.4,4.59,4.59,0,0,1,1.61-1.8,3.92,3.92,0,0,1,2.13-.63,3.47,3.47,0,0,1,2.82,1.21,5.06,5.06,0,0,1,1,3.34A5.5,5.5,0,0,1,116.55,40.93Zm-1.24-1.06a3.7,3.7,0,0,0-.66-2.37,2.24,2.24,0,0,0-1.85-.82,2.68,2.68,0,0,0-1.93.82,3.73,3.73,0,0,0-1,2.37Z"/><path class="cls-2" d="M10.35,20a1.33,1.33,0,0,1,.82.17,1,1,0,0,1,0,1.52,1.33,1.33,0,0,1-.82.17H1.58c-.79,0-1-.33-1-1V1.52A1.44,1.44,0,0,1,.72.66,1,1,0,0,1,1.61.33,1,1,0,0,1,2.5.66a1.44,1.44,0,0,1,.16.86V20Z"/><path class="cls-2" d="M18.68,9.39h5.74a1.33,1.33,0,0,1,.82.16.87.87,0,0,1,.33.76.87.87,0,0,1-.33.76,1.33,1.33,0,0,1-.82.17H18.68V20h8a1.33,1.33,0,0,1,.82.17,1,1,0,0,1,0,1.52,1.33,1.33,0,0,1-.82.17h-9c-.76,0-1-.33-1-1V1.58c0-.73.26-1,1-1h8a1.33,1.33,0,0,1,.82.16.87.87,0,0,1,.33.76.87.87,0,0,1-.33.76,1.33,1.33,0,0,1-.82.17h-7Z"/><path class="cls-2" d="M42.84,0c6.69,0,10.81,4.55,10.81,11.17S49.43,22.38,42.7,22.38,31.89,17.83,31.89,11.21,36.11,0,42.84,0Zm0,20.57c5.24,0,8.64-3.43,8.64-9.36S48,1.81,42.74,1.81,34.1,5.24,34.1,11.17,37.56,20.57,42.8,20.57Z"/><path class="cls-2" d="M61.62,20.9a1.43,1.43,0,0,1-.17.86,1.28,1.28,0,0,1-1.71,0,1.44,1.44,0,0,1-.16-.86V1.25c0-.59.3-.92,1-.92s1,.33,1.55,1l13.08,17V1.52a1.43,1.43,0,0,1,.17-.86,1.28,1.28,0,0,1,1.71,0,1.44,1.44,0,0,1,.16.86V21.16a.86.86,0,0,1-1,1c-.63,0-1-.33-1.48-1l-13.15-17Z"/><path class="cls-2" d="M103.53,20.43a9.47,9.47,0,0,0,3.69-.76c1.45-.59,2-1.22,2.47-1.22a.94.94,0,0,1,.82,1c0,.43-.3.79-1,1.25a11.19,11.19,0,0,1-6,1.58C98,22.28,92.72,18.75,92.72,11S98,.07,103.37.07a11.65,11.65,0,0,1,5.9,1.48c.82.49,1.25.92,1.25,1.35S110.12,4,109.63,4s-1.09-.66-2.44-1.25a9.81,9.81,0,0,0-3.92-.79c-4.15,0-8.34,2.54-8.34,9C94.93,17.67,99.41,20.43,103.53,20.43Z"/><path class="cls-2" d="M133.29,20.9a1.44,1.44,0,0,1-.16.86,1.37,1.37,0,0,1-1.78,0,1.44,1.44,0,0,1-.16-.86V11.3H118.52V20.9a1.44,1.44,0,0,1-.16.86,1.37,1.37,0,0,1-1.78,0,1.44,1.44,0,0,1-.16-.86V1.52a1.44,1.44,0,0,1,.16-.86,1.37,1.37,0,0,1,1.78,0,1.44,1.44,0,0,1,.16.86V9.46h12.66V1.52a1.44,1.44,0,0,1,.16-.86,1.37,1.37,0,0,1,1.78,0,1.44,1.44,0,0,1,.16.86Z"/><path class="cls-2" d="M151.38,14.07h-8l-2.67,7c-.23.63-.46,1-1.25,1s-.92-.26-.92-.63a2.31,2.31,0,0,1,.2-.76L146.3,1.45c.26-.69.56-1.15,1.25-1.15s1,.46,1.25,1.19l7.32,19.21a2.25,2.25,0,0,1,.17.73c0,.4-.3.66-1,.66s-1-.33-1.29-1Zm-7.32-1.81h6.66l-3.26-8.73Z"/><path class="cls-2" d="M163.6,20.9a1.43,1.43,0,0,1-.17.86,1,1,0,0,1-.86.33,1,1,0,0,1-.89-.33,1.44,1.44,0,0,1-.16-.86V2.11c0-.82,0-1.29,1.29-1.55a16.18,16.18,0,0,1,2.87-.23,11,11,0,0,1,5,1,5.1,5.1,0,0,1,2.87,4.88C173.52,9,172,11.07,169,12l6.36,8.8c.43.59.33,1.25-.79,1.25-.86,0-1.15-.4-1.58-1l-4.25-6c-1.15-1.62-1.71-2.6-1.71-2.6a15.34,15.34,0,0,1-2.11.13,9.75,9.75,0,0,1-1.32-.07Zm0-10.09s.59,0,1.22,0c4.42,0,6.46-1.58,6.46-4.45,0-3.3-2.67-4.28-5.54-4.28a14,14,0,0,0-2.14.17Z"/><path class="cls-2" d="M183,20.9a1.43,1.43,0,0,1-.17.86,1.28,1.28,0,0,1-1.71,0,1.44,1.44,0,0,1-.16-.86V1.25c0-.59.3-.92,1-.92s1,.33,1.55,1l13.08,17V1.52a1.43,1.43,0,0,1,.17-.86,1.28,1.28,0,0,1,1.71,0,1.44,1.44,0,0,1,.16.86V21.16a.86.86,0,0,1-1,1c-.63,0-1-.33-1.48-1L183,4.09Z"/><path class="cls-2" d="M208.32,9.39h5.73a1.33,1.33,0,0,1,.82.16.87.87,0,0,1,.33.76.87.87,0,0,1-.33.76,1.33,1.33,0,0,1-.82.17h-5.73V20h8a1.33,1.33,0,0,1,.82.17,1,1,0,0,1,0,1.52,1.33,1.33,0,0,1-.82.17h-9c-.76,0-1-.33-1-1V1.58c0-.73.26-1,1-1h8a1.33,1.33,0,0,1,.82.16.88.88,0,0,1,.33.76.87.87,0,0,1-.33.76,1.33,1.33,0,0,1-.82.17h-7Z"/><path class="cls-2" d="M235.6,1.32a1.58,1.58,0,0,1,1.52-1c.63,0,.89.23.89.59a1.74,1.74,0,0,1-.36.89l-7.32,11.67V20.9a1.43,1.43,0,0,1-.17.86,1.37,1.37,0,0,1-1.78,0,1.44,1.44,0,0,1-.16-.86V13.48L221.17,1.85a2.15,2.15,0,0,1-.4-.89c0-.4.36-.63,1-.63a1.58,1.58,0,0,1,1.55,1l6,10.18Z"/><path class="cls-2" d="M237,27.48H.8a.8.8,0,0,1,0-1.59H237a.8.8,0,0,1,0,1.59Z"/></g></g>
</symbol>
<symbol id="audio" viewBox="0 0 43.43 34.11"><defs><style>.cls-1{fill:#fbbf61;}.cls-2{fill:#fdd085;}</style></defs><title>Audio</title><g id="Layer_2" data-name="Layer 2"><g id="Main"><path class="cls-1" d="M17,.91,7.62,10.43H3a3,3,0,0,0-3,3v7.71a3,3,0,0,0,3,3H8.07L17,33.19a3,3,0,0,0,5.19-2.12V3A3,3,0,0,0,17,.91Z"/><path class="cls-2" d="M24.88,24a1.16,1.16,0,0,1-.24-2.3c1.6-.34,2.21-2.28,2.25-3.83,0-1.9-.75-4.13-2.3-4.54a1.16,1.16,0,0,1,.59-2.25c2.87.75,4.11,4.07,4,6.84-.07,3.17-1.68,5.55-4.1,6.06Z"/><path class="cls-2" d="M28.42,29a1.16,1.16,0,0,1-.29-2.29c4.18-1.09,6-5.72,5.89-9.82-.08-3.95-1.91-8.32-5.85-9.19a1.16,1.16,0,0,1,.5-2.27c5.17,1.14,7.58,6.55,7.68,11.42.1,5-2.23,10.71-7.63,12.12A1.14,1.14,0,0,1,28.42,29Z"/><path class="cls-2" d="M32.68,33.93a1.16,1.16,0,0,1-.27-2.3C38.33,30.24,41,23.7,41.1,17.85,41.17,11.79,38.5,5,32.39,3.4A1.16,1.16,0,1,1,33,1.14C40.3,3,43.5,10.9,43.43,17.87c-.07,6.77-3.34,14.34-10.49,16A1.15,1.15,0,0,1,32.68,33.93Z"/></g></g>
</symbol>
<symbol id="pdf" viewBox="0 0 44.6 44.6"><defs><style>.cls-1{fill:#bf311a;}.cls-2{fill:#fff;}</style></defs><title>PDF</title><g id="Layer_2" data-name="Layer 2"><g id="Main"><circle class="cls-1" cx="22.3" cy="22.3" r="22.3"/><path class="cls-2" d="M37.22,23a2.14,2.14,0,0,0-1-1,9.39,9.39,0,0,0-4.27-.74,25.55,25.55,0,0,0-4,.38l-.61.12a24.42,24.42,0,0,1-2.47-3.38c-.6-1-1.15-2-1.65-3,.35-1.2.68-2.43.93-3.72a18.69,18.69,0,0,0,.32-2.08,8.16,8.16,0,0,0,.07-1.08l0-.26V8L24.55,8l-.05,0V7.79c0-.19,0-.39-.08-.58A2.87,2.87,0,0,0,22.91,5a1.84,1.84,0,0,0-1.55,0,2.45,2.45,0,0,0-1,1,4.34,4.34,0,0,0-.5,2.42,9.94,9.94,0,0,0,.45,2.23,28.61,28.61,0,0,0,1.45,3.6l-.18.56a57.43,57.43,0,0,1-2.68,6.49Q18,23.28,17.1,24.9a29.54,29.54,0,0,0-6,3,7.15,7.15,0,0,0-1.42,1.27,2.4,2.4,0,0,0-.62,1.66,2.06,2.06,0,0,0,.48,1.16l.18.2,0,.05,0,0a1.71,1.71,0,0,0,.39.28,2.38,2.38,0,0,0,1.18.27,5.63,5.63,0,0,0,3.25-1.33,8.09,8.09,0,0,0,1.63-1.71c.51-.63,1-1.35,1.5-2.12s1.07-1.77,1.6-2.76c.61-.25,1.24-.49,1.9-.73a29.28,29.28,0,0,1,6-1.61,10.84,10.84,0,0,0,1.4,1.19,13.77,13.77,0,0,0,2,1.07,15.68,15.68,0,0,0,2.06.8,5.6,5.6,0,0,0,2.27.28,2.83,2.83,0,0,0,2.12-1.41,2.13,2.13,0,0,0,.21-.6A1.63,1.63,0,0,0,37.22,23ZM21.32,10.42c-.37-1.34-.55-2.78.06-3.73.3-.46.73-.62,1-.46A1.65,1.65,0,0,1,23,7.46c0,.15,0,.29,0,.44V8h0v.32a6.32,6.32,0,0,1-.08,1,17.64,17.64,0,0,1-.36,1.89c-.13.58-.29,1.14-.45,1.7C21.86,12.09,21.56,11.26,21.32,10.42Zm-5.2,16.15c-.48.73-.92,1.42-1.37,2A6.58,6.58,0,0,1,13.49,30a4.22,4.22,0,0,1-2.14,1.06c-.43,0-.38-.08-.41-.07l0,0s-.27-.2-.32-.4a.89.89,0,0,1,.19-.69,4.84,4.84,0,0,1,1.06-1.1,22.73,22.73,0,0,1,3.87-2.36l.6-.29ZM21,23.44l-1.12.4c.27-.53.54-1.08.8-1.65a60.34,60.34,0,0,0,2.16-5.75c.43.77.88,1.52,1.37,2.26a26.08,26.08,0,0,0,2.4,3.1c-.79.16-1.56.34-2.3.55C23.16,22.71,22.07,23.08,21,23.44Zm15,.14c0,.2,0,.28-.07.41a1.09,1.09,0,0,1-.31.69,1.7,1.7,0,0,1-.76.36,7,7,0,0,1-4-.77,10.43,10.43,0,0,1-1.86-1,9.44,9.44,0,0,1-1-.84h0a23.77,23.77,0,0,1,3.81-.13,9.46,9.46,0,0,1,3.66.77.87.87,0,0,1,.41.4S36,23.56,36,23.58Z"/><path class="cls-2" d="M16,35.27h1.73a2.55,2.55,0,0,1,1.49.39,1.42,1.42,0,0,1,.55,1.26,1.53,1.53,0,0,1-.56,1.29,2.28,2.28,0,0,1-1.45.44h-.67v1.81H16Zm1.69,2.51q1,0,1-.87a.68.68,0,0,0-.26-.6,1.38,1.38,0,0,0-.79-.18h-.57v1.64Z"/><path class="cls-2" d="M20.7,35.27h1.44a2.65,2.65,0,0,1,1.9.64,2.54,2.54,0,0,1,.68,1.93,2.63,2.63,0,0,1-.67,2,2.51,2.51,0,0,1-1.85.66H20.7Zm1.38,4.3q1.52,0,1.53-1.73a1.78,1.78,0,0,0-.39-1.29,1.52,1.52,0,0,0-1.13-.4h-.29v3.42Z"/><path class="cls-2" d="M25.72,35.27h3.22v.91H26.8v1.29h1.83v.91H26.8v2.07H25.72Z"/></g></g>
</symbol>
<symbol id="play" viewBox="0 0 36.46 36.46"><defs><style>.cls-1,.cls-2{fill:#fbb034;}.cls-1{fill-opacity:0.2;}</style></defs><title>Play</title><g id="Layer_2" data-name="Layer 2"><g id="Main"><circle class="cls-1" cx="18.23" cy="17.98" r="17.23"/><path class="cls-2" d="M18.23,36.46A18.23,18.23,0,1,1,36.46,18.23,18.25,18.25,0,0,1,18.23,36.46ZM18.23,2A16.23,16.23,0,1,0,34.46,18.23,16.25,16.25,0,0,0,18.23,2Z"/><polygon class="cls-2" points="28.81 18.23 12.44 27.05 12.44 9.41 28.81 18.23"/></g></g>
</symbol>
<symbol id="search" viewBox="0 0 16.39 15.86"><title>Search</title><g id="Layer_2" data-name="Layer 2"><g id="Main"><path d="M5.76,11.53a5.76,5.76,0,1,1,5.76-5.76A5.77,5.77,0,0,1,5.76,11.53ZM5.76.81a5,5,0,1,0,5,5A5,5,0,0,0,5.76.81Z"/><path d="M16,15.86a.4.4,0,0,1-.29-.12L9.52,9.56A.4.4,0,1,1,10.09,9l6.18,6.18a.4.4,0,0,1-.29.69Z"/></g></g>
</symbol>
<symbol id="x" viewBox="0 0 22.13 22.13"><defs><style>.cls-1{fill:#333;}</style></defs><title>X</title><g id="Layer_2" data-name="Layer 2"><g id="Main"><g id="_Group_" data-name="&lt;Group&gt;"><path class="cls-1" d="M12.68,11,16,7.77a1.18,1.18,0,1,0-1.67-1.67L11,9.37,7.75,6.1A1.18,1.18,0,0,0,6.08,7.77L9.35,11,6.07,14.31A1.18,1.18,0,0,0,7.74,16L11,12.71,14.28,16A1.18,1.18,0,1,0,16,14.32Z"/><g id="_Group_2" data-name="&lt;Group&gt;"><path id="_Compound_Path_" data-name="&lt;Compound Path&gt;" class="cls-1" d="M11.06,22.13A11.06,11.06,0,1,1,22.13,11.06,11.08,11.08,0,0,1,11.06,22.13Zm0-19.75a8.68,8.68,0,1,0,8.68,8.68A8.7,8.7,0,0,0,11.06,2.38Z"/></g></g></g></g>
</symbol>
<symbol id="x-hover" viewBox="0 0 22.13 22.13"><title>X-hover</title><g id="Layer_2" data-name="Layer 2"><g id="Main"><g id="_Group_" data-name="&lt;Group&gt;"><path d="M12.68,11,16,7.77a1.18,1.18,0,1,0-1.67-1.67L11,9.37,7.75,6.1A1.18,1.18,0,0,0,6.08,7.77L9.35,11,6.07,14.31A1.18,1.18,0,0,0,7.74,16L11,12.71,14.28,16A1.18,1.18,0,1,0,16,14.32Z"/><g id="_Group_2" data-name="&lt;Group&gt;"><path id="_Compound_Path_" data-name="&lt;Compound Path&gt;" d="M11.06,22.13A11.06,11.06,0,1,1,22.13,11.06,11.08,11.08,0,0,1,11.06,22.13Zm0-19.75a8.68,8.68,0,1,0,8.68,8.68A8.7,8.7,0,0,0,11.06,2.38Z"/></g></g></g></g>
</symbol></svg>